<svg width="2731" height="2731" viewBox="0 0 2731 2731" fill="none" xmlns="http://www.w3.org/2000/svg">
<g id="cuerpo_completo">
<g id="cuerpo_completo_anterior">
<g id="cabeza_anterior">
<path id="Vector" d="M743.333 114.267C701.867 119.467 672.667 138.134 658 168.667C648.267 188.934 646.267 198.934 646.133 228.4L646 253.467L642.667 252.534C632.667 249.734 626.533 254.534 625.6 265.867C624.267 282.134 636.533 320.534 645.733 329.2C648.933 332.134 652.133 332.8 657.867 331.734C660 331.467 660.667 332.4 661.6 337.334C664.267 351.2 668.267 364.667 671.867 371.734C686 399.734 716.933 425.867 744.4 432.934C779.067 441.734 825.467 411.867 845.2 367.734C849.067 358.934 853.333 342.4 853.333 335.867C853.333 331.2 854.8 330.267 859.333 332C864.933 334.134 871.867 330.134 875.6 322.667C879.467 314.667 886.133 293.867 888.8 280.8C891.733 266.4 890.8 257.867 886 253.6C882.267 250.4 879.6 250.267 871.333 252.667C868.8 253.467 868.667 252.934 869.2 234.4C870.267 191.467 861.867 165.734 839.333 143.334C823.2 127.2 808 119.467 784.4 115.334C774 113.467 753.467 112.934 743.333 114.267Z" fill="black"/>
</g>
<g id="cuello_anterior">
<path id="Vector_2" d="M679.2 424.267C682.933 468.4 707.733 521.6 732.667 538.667C739.6 543.334 743.333 543.734 745.467 539.867C747.6 535.867 746 467.6 743.733 460.534C742.133 455.734 740.8 454.8 726.133 447.334C713.067 440.667 707.867 437.067 696 426.267C688 419.2 680.8 413.334 679.867 413.334C678.667 413.334 678.533 416.134 679.2 424.267Z" fill="black"/>
<path id="Vector_3" d="M823.333 424.666C810.267 436.133 797.333 444.933 792 446.266C785.733 447.733 776.267 453.2 773.6 456.933C769.333 463.066 768 474.533 768 506.8C768 534 768.267 537.333 770.4 540C774 544.4 777.6 542.666 789.867 530.8C802 519.066 807.867 510.8 816.533 493.6C827.867 471.066 836.667 438.4 835.733 421.866L835.333 414.133L823.333 424.666Z" fill="black"/>
</g>
<g id="trapecio_superior_anterior">
<path id="Vector_4" d="M854.4 416.133C854 417.2 853.6 421.867 853.467 426.667C852.667 448.8 843.867 480.267 831.867 504.4C828.267 511.6 825.333 518.267 825.333 519.333C825.333 523.6 830.533 524.133 876.267 524.133C911.467 524.133 923.733 523.733 929.6 522.267C941.334 519.333 970.534 507.6 970.667 505.733C970.667 504.8 968.667 503.067 966.4 501.867C960.667 498.933 936.8 483.2 910 464.8C889.2 450.4 872.533 435.6 860.4 420.8C856.8 416.4 854.933 414.8 854.4 416.133Z" fill="black"/>
<path id="Vector_5" d="M650.533 428.933C645.867 434.533 636.667 443.6 630 448.933C616.8 459.733 569.867 491.467 555.733 499.2C550.667 501.867 546.667 504.933 546.667 505.733C546.667 507.467 550.8 509.2 578.667 519.067L594 524.533L638.667 524.133C663.2 524 684.4 523.6 685.733 523.2C690.933 521.6 690.667 518.4 683.333 502.667C675.2 485.067 672 475.867 668 460C665.733 451.2 661.467 425.333 661.333 419.6C661.333 417.067 658.4 419.467 650.533 428.933Z" fill="black"/>
</g>
<g id="hombros_anterior">
<path id="Vector_6" d="M466.667 518C439.867 524 423.867 533.2 404.667 553.6C383.6 575.867 370 603.333 363.2 636.8C359.867 653.2 359.733 688.667 363.067 702.667C369.067 728.133 382 757.333 387.2 757.333C388 757.333 391.2 755.067 394.133 752.267C416.133 732.533 422.667 727.067 437.467 716.667C459.733 700.8 465.6 695.733 475.067 684C483.867 673.067 488.933 662.933 496.667 641.333C511.067 601.067 533.333 567.333 559.6 546.533C564.133 542.8 568 539.067 568 538.133C568 537.2 565.6 535.2 562.667 533.467C555.2 529.333 528 520.133 516.267 517.867C504.4 515.6 476.8 515.6 466.667 518Z" fill="black"/>
<path id="Vector_7" d="M992.533 520.533C982.933 522.934 968.933 527.6 961.2 530.8C944 538.133 943.467 539.467 954.133 548C979.867 568.534 999.867 599.2 1017.47 645.2C1021.87 656.534 1027.87 669.733 1030.93 674.267C1039.07 686.934 1055.47 701.467 1078.67 716.8C1099.6 730.534 1116.8 744.4 1122.4 751.867C1125.73 756.534 1128.8 757.067 1131.6 753.6C1134.67 749.734 1143.47 731.734 1145.73 724.667C1152.4 704 1155.6 673.467 1153.33 650.267C1151.47 630.8 1150.53 625.867 1145.2 609.334C1137.47 585.734 1126.67 566.934 1111.87 551.333C1098.4 537.2 1084 528 1065.87 521.734C1051.87 517.067 1050.53 516.8 1030.67 516.4C1010.8 516 1009.33 516.133 992.533 520.533Z" fill="black"/>
</g>
<g id="pecho_posterior">
<path id="Vector_8" d="M623.333 541.333C590.533 544.8 573.6 554.4 550 582.666C531.733 604.666 519.466 626.8 510.266 653.866C505.2 669.066 504.933 670.933 504.8 686C504.8 700.4 505.066 702.933 508.533 711.866C521.6 746.4 551.333 773.6 590.266 786.8C606.666 792.266 618.533 793.733 640.266 792.933C660.666 792.133 677.2 789.2 692 783.6C719.333 773.333 734 761.066 743.6 740.666L747.333 732.666L747.733 666.8C748 625.066 747.6 598.533 746.8 594.4C741.066 567.733 717.2 550.8 675.066 543.333C660.133 540.8 637.066 539.866 623.333 541.333Z" fill="black"/>
<path id="Vector_9" d="M857.333 541.467C814.267 545.467 782 559.6 772.4 578.8C765.733 592.267 765.333 596.267 765.333 661.467C765.333 694.933 765.867 725.2 766.533 728.8C770.933 751.6 780.933 763.2 806.933 775.867C845.467 794.533 888.533 798.533 924 786.667C935.067 782.933 953.333 773.333 962.4 766.4C973.467 757.733 989.467 740 996.4 728.533C1012.13 702 1012.4 676.8 997.2 640.133C986.533 614.533 971.333 590.4 953.333 570.4C938.4 553.733 916.8 543.6 891.333 541.333C876.133 539.867 874.667 540 857.333 541.467Z" fill="black"/>
</g>
<g id="biceps_anterior">
<path id="Vector_10" d="M476.933 707.067C473.6 709.333 462.667 717.333 452.533 724.533C442.4 731.867 429.733 742 424.267 747.2C401.6 768.667 386.533 800.533 378.4 844C374.533 864.4 374.133 903.2 377.733 919.067C383.6 945.333 395.867 967.6 406 970.133C413.467 972 430.133 960.8 444.4 944.4C463.867 922 479.733 893.067 490.4 860.667C500.933 828.933 502 821.867 501.867 784.667C501.733 750.667 500 737.067 493.067 716.8C488.267 702.667 485.333 700.933 476.933 707.067Z" fill="black"/>
<path id="Vector_11" d="M1028.27 704.133C1017.6 708.133 1007.33 766.933 1010.53 804.933C1014.27 846.8 1027.87 884.133 1054 924.133C1071.33 950.533 1089.07 967.6 1101.6 970C1110.93 971.733 1118.4 965.066 1126.93 947.333C1147.33 904.666 1142.8 832 1116.27 779.333C1105.87 758.4 1092.8 744.266 1071.07 729.866C1064.67 725.6 1054.27 718.4 1048 713.866C1033.33 703.333 1032 702.666 1028.27 704.133Z" fill="black"/>
</g>
<g id="triceps_anterior">
<path id="Vector_12" d="M1149.2 754.933C1147.6 758.133 1144 764.133 1141.2 768.267C1138.27 772.4 1136 776.667 1136 777.733C1136 778.667 1137.87 784.533 1140.13 790.8C1153.33 827.067 1159.2 873.6 1155.47 913.6C1154.53 924.933 1154.53 925.333 1157.2 925.333C1162 925.333 1170.13 912 1173.87 898C1177.6 883.6 1179.2 854.933 1177.47 834C1175.47 811.067 1174.53 806.533 1167.73 784.667C1163.07 769.467 1154.4 749.333 1152.67 749.333C1152.4 749.333 1150.8 751.867 1149.2 754.933Z" fill="black"/>
<path id="Vector_13" d="M356.666 760.933C350.4 773.867 342.266 798.533 339.066 814.133C335.6 831.6 335.6 880.533 339.2 894.667C343.333 911.6 352.933 926.8 358 924.8C359.866 924.133 360 922.533 359.066 911.733C355.466 871.067 360.533 834.133 375.2 793.6L380.933 777.467L376.666 771.067C374.4 767.6 370.8 761.467 368.666 757.6C366.666 753.867 364.266 750.667 363.333 750.667C362.533 750.667 359.466 755.333 356.666 760.933Z" fill="black"/>
</g>
<g id="antebrazo_anterior">
<path id="Vector_14" d="M331.6 932.267C317.066 951.733 303.733 980 296.8 1006.67C289.466 1034.4 288.666 1042.4 288.8 1092.67C288.8 1118.27 289.6 1150.13 290.533 1163.33C291.466 1176.53 292.666 1207.33 293.2 1231.6L294 1276L297.733 1279.6C300.8 1282.8 302.4 1283.33 308.666 1283.2C313.866 1283.2 317.066 1282.4 319.6 1280.53C327.2 1274.8 328 1272.53 330 1250C333.466 1210.27 334.8 1200.67 339.6 1179.33C344.533 1157.2 349.866 1138.67 360 1108C385.466 1030.8 386.8 1010.13 368.8 973.333C363.866 963.2 339.333 929.2 336.4 928.267C335.6 928.133 333.466 929.867 331.6 932.267Z" fill="black"/>
<path id="Vector_15" d="M1169.6 937.6C1132.93 982.667 1126 1005.73 1136 1050C1139.47 1065.47 1149.87 1100.67 1159.33 1128.67C1170 1160.27 1178.67 1207.07 1182.67 1255.2C1183.47 1264.67 1184.67 1273.33 1185.33 1274.53C1188.27 1280 1193.33 1283.07 1200.53 1283.73C1207.33 1284.27 1208.13 1284 1212 1280.27L1216 1276.27V1249.07C1216.13 1222 1216.8 1206.53 1220.67 1154C1227.73 1056 1223.07 1010.67 1201.33 964.4C1194.53 950 1180.93 928 1178.8 928C1178.13 928 1174 932.4 1169.6 937.6Z" fill="black"/>
<path id="Vector_16" d="M431.866 979.867C413.066 993.733 402.266 1009.87 396.133 1033.6C389.466 1059.07 376.933 1102.13 368 1130.67C352.8 1179.07 346.933 1209.6 345.733 1248L344.933 1271.33L348.666 1275.73C351.6 1279.2 353.2 1280 357.333 1280C365.466 1280 369.866 1275.33 372.666 1263.73C374.8 1254.8 388.266 1218.4 390.666 1215.33C392.4 1212.93 423.333 1151.6 426.933 1143.33C446.933 1097.07 452 1057.73 446.533 993.333C445.066 976.133 444.533 973.333 442.266 973.333C441.333 973.333 436.666 976.267 431.866 979.867Z" fill="black"/>
<path id="Vector_17" d="M1068.27 984.933C1061.07 1036.53 1064 1079.33 1077.6 1121.07C1082.93 1137.47 1088.67 1150.27 1106.93 1187.07C1131.47 1236.27 1134.4 1243.33 1139.33 1262.53C1143.07 1277.47 1145.33 1280.4 1153.47 1280.27C1157.73 1280.13 1160 1279.33 1162.53 1276.67L1166 1273.2V1248.27C1165.87 1222.53 1164.67 1210.67 1159.2 1183.47C1155.87 1166.8 1145.47 1128.13 1141.2 1116.67C1137.2 1105.47 1124 1060.53 1118.67 1039.07C1112.67 1015.87 1111.73 1013.47 1101.73 1000.27C1094.8 991.2 1074.67 973.333 1071.33 973.333C1070.53 973.333 1069.2 978.4 1068.27 984.933Z" fill="black"/>
</g>
<g id="oblicuos_anterior">
<path id="Vector_18" d="M983.2 770.8C961.867 790.533 935.067 803.6 905.333 808.667C890.933 811.2 888.667 813.333 889.867 823.6C891.467 837.6 894.8 841.2 914 849.333C934.4 858 949.867 867.2 964.933 879.467C968.933 882.8 972.8 885.067 973.467 884.667C978 881.867 988.533 850.8 991.467 831.467C993.067 820.933 993.333 812.8 992.533 794C992.133 780.8 991.2 768.8 990.667 767.467C989.867 765.067 989.067 765.467 983.2 770.8Z" fill="black"/>
<path id="Vector_19" d="M521.733 770.267C521.2 772.4 520.667 786.933 520.667 802.667C520.667 832.533 521.2 836.667 528 858.667C531.2 868.933 537.467 881.333 540.267 883.067C541.733 884 544.667 882.667 551.467 877.733C563.333 869.067 575.867 861.467 586.667 856.4C591.467 854.133 600.533 849.867 606.933 846.8C617.2 842 618.667 840.8 621.2 835.467C622.8 832.267 624.4 826.667 624.933 822.933C626 813.867 623.467 811.467 610.533 809.333C580.4 804.267 557.733 794.133 536.133 775.6C530.267 770.667 524.933 766.667 524.133 766.667C523.333 766.667 522.267 768.267 521.733 770.267Z" fill="black"/>
<path id="Vector_20" d="M592.933 867.067C574.667 876.667 555.333 890.4 551.333 896.533C548.133 901.333 550.133 906.4 558.667 914.8C573.867 929.733 608.8 950 617.733 949.067L622 948.667L622.667 936C623.067 929.067 624.8 917.867 626.533 911.333L629.733 899.333L626.267 888C624.267 881.733 622 873.333 621.2 869.333C619.2 859.6 617.867 857.333 614.267 857.333C612.667 857.333 603.067 861.733 592.933 867.067Z" fill="black"/>
<path id="Vector_21" d="M896.4 858.933C895.6 859.867 894 865.2 892.667 870.667C891.333 876.133 888.8 884.4 887.067 889.067C883.333 898.133 883.467 900.533 887.867 915.333C889.733 921.467 890.667 928.267 890.667 935.467C890.667 948.133 892 950.133 899.333 948.933C905.6 947.867 922.533 939.733 933.733 932.4C950.667 921.2 962.667 908 962.667 900.533C962.667 891.733 946 878.667 915.467 863.733C903.067 857.6 898.4 856.4 896.4 858.933Z" fill="black"/>
<path id="Vector_22" d="M550 934.934C548.8 945.6 551.2 962.534 555.2 971.334C562 986.267 588.533 1015.87 611.333 1034C624.933 1044.8 626.667 1044.13 626.667 1027.6C626.667 1022.27 627.6 1012.53 628.667 1006C631.333 989.333 631.2 982 627.867 975.067C624.667 968.4 620.667 965.2 610.533 961.334C597.867 956.4 582.4 948 567.2 937.867C559.067 932.4 552 928 551.6 928C551.2 928 550.533 931.2 550 934.934Z" fill="black"/>
<path id="Vector_23" d="M950.667 934.933C939.2 943.733 923.6 952.933 908 959.867C893.6 966.4 890 969.2 886.533 976.667C883.733 982.533 883.2 995.733 885.333 1004.67C886 1007.6 886.933 1016.8 887.467 1025.07C888.133 1036 888.933 1040.4 890.267 1040.93C893.067 1042 905.6 1031.6 927.333 1010C953.2 984.133 960.267 972.267 962.267 951.333C963.067 942.667 961.733 928 960.267 928.133C959.733 928.133 955.467 931.2 950.667 934.933Z" fill="black"/>
<path id="Vector_24" d="M948.667 1005.47C940.267 1016.27 933.867 1022.8 903.6 1051.87C889.333 1065.47 887.2 1071.33 882 1108C880.8 1116.4 878.667 1129.47 877.2 1137.07C875.733 1144.67 873.333 1157.87 872 1166.4C870.533 1174.93 868.8 1184.67 868 1188C863.467 1210.4 861.2 1224.53 861.867 1227.2C863.2 1232.53 866.4 1232.53 873.2 1227.07C900.933 1204.67 937.733 1169.87 951.467 1152.93C966.8 1134 972.4 1117.6 972.4 1090.67C972.4 1074.93 971.2 1065.07 966 1034.67C964.8 1027.73 963.067 1015.73 962.267 1008.13C961.333 1000.53 960.133 994 959.333 993.867C958.667 993.733 953.867 998.933 948.667 1005.47Z" fill="black"/>
<path id="Vector_25" d="M551.467 996.266C551.067 997.2 550.267 1004.4 549.467 1012.13C548.533 1019.87 546.133 1036.93 544 1050C537.333 1089.47 539.467 1113.73 551.2 1137.07C558.8 1152.13 581.2 1176.8 612.667 1204.93C637.733 1227.2 645.733 1233.07 648.667 1230.67C651.467 1228.27 651.2 1223.07 646.8 1201.2C635.467 1145.47 631.6 1122.13 629.467 1096.67C628.667 1087.87 627.2 1077.6 626 1073.73C623.2 1064.4 614.133 1052.8 600.933 1041.6C590.267 1032.53 565.067 1007.6 558 998.933C554.267 994.4 552.267 993.6 551.467 996.266Z" fill="black"/>
</g>
<g id="recto_abdominal_anterior">
<path id="Vector_26" d="M732 787.6C706 796.933 695.333 800.4 682 804C662.133 809.467 655.067 812.933 648.533 820.4C641.333 828.667 638.533 836.8 637.733 852.667C637.2 864.133 637.467 867.067 639.867 873.467C641.467 877.467 644.533 882.667 646.8 885.067C652.667 891.067 658.4 892.533 672.933 891.6C686.8 890.667 727.6 884.667 734.267 882.533C739.6 880.8 744.8 874.8 746.667 868.267C748.8 860.267 748.4 799.6 746.133 794C743.467 787.733 738.267 785.333 732 787.6Z" fill="black"/>
<path id="Vector_27" d="M772.267 788.8C765.867 793.2 765.333 796.267 765.333 830.267C765.333 881.2 765.467 881.2 806 886.533C847.6 891.867 854.667 892.4 860.133 890.8C880.267 884.8 884.4 841.067 866.667 820.933C861.2 814.8 853.334 810.4 842 807.067C815.467 799.467 791.333 791.467 785.333 788.4C780.8 786.133 775.867 786.267 772.267 788.8Z" fill="black"/>
<path id="Vector_28" d="M723.333 900.8C716.8 901.733 704.8 903.2 696.667 904C669.467 906.8 655.867 909.2 651.6 911.6C649.067 913.067 646 916.667 644 920.667C641.067 926.667 640.667 928.933 640.667 942.667C640.667 956.533 641.067 958.8 644.267 965.6C648.667 974.933 655.867 980.533 666.4 982.8C674.8 984.533 709.6 983.6 726.667 981.2C746.8 978.267 748 976.133 748 940.4C748 899.467 746.8 897.467 723.333 900.8Z" fill="black"/>
<path id="Vector_29" d="M771.333 901.6C766.533 905.866 765.6 912.266 765.466 943.733C765.333 962.133 765.733 967.866 767.466 971.333C771.466 980 785.333 982.8 823.6 982.933C848 982.933 849.6 982.8 856.4 979.6C869.466 973.733 873.733 964 873.867 940.666C874 927.733 873.6 923.866 871.6 920.266C868.533 914.666 859.867 908.4 853.6 907.466C849.333 906.8 806.533 901.733 782.533 899.2C776 898.4 774.8 898.666 771.333 901.6Z" fill="black"/>
<path id="Vector_30" d="M774.8 997.6C773.067 998.533 770.267 1001.07 768.8 1003.07C766.133 1006.67 766 1008.53 766 1038C766 1081.2 763.2 1078.8 814.267 1078.8C849.6 1078.67 849.6 1078.67 855.333 1075.33C861.733 1071.6 868.8 1062 870.267 1054.8C870.933 1052.13 871.333 1042.8 871.333 1034C871.333 1016.13 869.333 1010.27 861.333 1003.6C856.133 999.2 854.667 998.933 818 998.133C801.2 997.733 785.2 997.066 782.667 996.666C780 996.266 776.667 996.666 774.8 997.6Z" fill="black"/>
<path id="Vector_31" d="M660 1000.13C648.933 1005.07 642.267 1018.93 642.267 1036.67C642.267 1054.67 648.8 1069.2 659.6 1075.6L666 1079.33L700.133 1079.2C749.867 1079.07 748.267 1080.53 747.733 1034.4C747.333 1004.8 747.2 1004 744.267 1001.07C741.333 998 741.067 998 703.067 998C670.933 998 664 998.4 660 1000.13Z" fill="black"/>
<path id="Vector_32" d="M660.267 1095.6C652.933 1099.2 650 1106.4 650.267 1120.67C650.267 1127.2 651.333 1137.73 652.4 1144C664.667 1210.67 670.933 1242.27 672.933 1246.93C675.333 1252.53 699.2 1276.4 714 1288.13C735.467 1305.07 740.133 1306.93 745.2 1300.4C748 1296.93 748 1296.53 747.733 1199.07L747.333 1101.07L742.933 1097.2L738.667 1093.33H701.6C670.133 1093.33 664 1093.73 660.267 1095.6Z" fill="black"/>
<path id="Vector_33" d="M773.066 1095.47C765.066 1099.73 765.333 1096.27 765.333 1200.93C765.333 1292.67 765.466 1296.8 767.866 1299.87C772.266 1305.6 778.133 1304.4 789.466 1295.87C808.266 1281.73 832.533 1259.2 837.333 1251.33C840.133 1246.8 846 1222.8 850.666 1196.67C852.266 1187.87 854.933 1173.47 856.666 1164.67C867.066 1112.27 866.533 1103.2 853.333 1096.27C847.6 1093.47 846.133 1093.33 812 1093.33C783.333 1093.47 776 1093.87 773.066 1095.47Z" fill="black"/>
</g>
<g id="cadera">
<path id="Vector_34" d="M540.667 1163.47C535.067 1169.07 518.267 1207.87 515.867 1220.53C513.2 1234.93 513.333 1235.07 553.867 1276C573.867 1296.13 595.467 1318.67 602 1326C617.733 1343.87 618.8 1344.67 621.2 1340.27C624.533 1334 632 1275.6 632 1255.47V1246.27L625.733 1240.13C622.133 1236.8 614 1229.33 607.333 1223.47C592.4 1210.4 567.6 1186.27 555.467 1173.2C544.533 1161.33 543.467 1160.67 540.667 1163.47Z" fill="black"/>
<path id="Vector_35" d="M942.667 1187.87C928.4 1202.27 909.467 1220.13 900.667 1227.6C891.867 1234.93 883.2 1242.53 881.467 1244.4L878.267 1247.87L879.867 1266.13C882.8 1299.47 889.467 1338.67 892.8 1341.47C894.8 1343.07 898.267 1340 911.333 1324.67C915.733 1319.6 935.333 1299.47 954.8 1280C990.667 1244.27 996 1237.6 996 1228.8C996 1221.47 990.267 1201.6 983.067 1184C975.733 1166.13 972.933 1161.2 970.133 1161.47C969.333 1161.47 956.933 1173.33 942.667 1187.87Z" fill="black"/>
<path id="Vector_36" d="M842.267 1275.07C832.4 1283.33 814.8 1297.47 803.2 1306.67C777.067 1327.2 768.667 1335.47 766.8 1342.27C764.4 1350.8 763.467 1392.13 765.2 1415.33C766.933 1438 770.533 1472.27 774 1497.33C775.067 1505.73 777.2 1523.47 778.667 1536.67C780.267 1549.87 781.867 1561.07 782.533 1561.73C783.067 1562.27 784 1556.67 784.533 1549.07C786.133 1525.33 788.133 1515.6 797.467 1487.33C808 1455.6 828.133 1421.6 859.333 1382.67C867.867 1372 876 1361.87 877.467 1360.13C879.6 1357.73 880 1356 879.467 1352.8C872.8 1320.93 866.8 1284 866.667 1275.2C866.667 1268.53 864.4 1261.73 862 1260.8C861.067 1260.53 852.4 1266.67 842.267 1275.07Z" fill="black"/>
<path id="Vector_37" d="M648.133 1264.27C647.6 1266 646 1275.07 644.8 1284.67C641.867 1307.07 634.933 1347.47 633.2 1352.93C631.867 1357.2 632.133 1357.73 644.933 1373.2C669.6 1403.07 676 1412.13 691.067 1437.6C711.6 1472.27 723.733 1509.87 726.133 1546.67C726.667 1553.6 727.467 1560.27 728 1561.33C729.333 1563.73 729.733 1561.07 736 1502C736.667 1496.13 739.067 1477.6 741.333 1460.67C743.467 1443.87 746 1420.13 746.8 1408C748.4 1382.53 747.2 1345.47 744.533 1339.2C742 1333.33 738.267 1329.73 709.067 1306.4C694.933 1295.07 676.8 1280.27 668.933 1273.6C660.933 1266.8 653.333 1261.33 651.867 1261.33C650.4 1261.33 648.8 1262.67 648.133 1264.27Z" fill="black"/>
</g>
<g id="manos_anterior">
<path id="Vector_38" d="M354 1296.93C349.6 1297.87 336.134 1299.07 324 1299.6C302.667 1300.4 302 1300.53 298.534 1303.87C295.334 1307.07 294.934 1308.93 293.467 1324.67C292.667 1334.27 291.2 1348.27 290.4 1356C289.6 1363.73 288.8 1382.93 288.8 1398.67C288.667 1427.07 288.667 1427.47 292.534 1437.33C303.467 1466 317.334 1484.67 333.867 1492.4C342.8 1496.67 367.067 1502.67 378.534 1503.47C389.2 1504.27 393.067 1502.53 396.534 1495.47C398.667 1490.93 398.8 1489.87 397.2 1485.07C395.2 1479.07 391.2 1475.47 378.934 1469.47C367.6 1463.73 360.267 1456.8 355.867 1447.47C346.134 1426.93 347.467 1407.87 359.067 1401.33C362.267 1399.6 363.067 1399.6 366.4 1401.33C370.934 1404 372.667 1407.47 375.2 1419.47C379.867 1442 392.4 1454.67 404 1448.67C411.067 1445.07 411.467 1442 407.467 1426.4C405.2 1418 403.334 1406 402.534 1395.33C399.2 1350.27 398.134 1346.4 381.6 1324C376 1316.4 371.6 1308.93 370.667 1305.33C369.067 1299.07 365.867 1294.53 363.467 1294.8C362.667 1294.93 358.4 1295.87 354 1296.93Z" fill="black"/>
<path id="Vector_39" d="M1146.27 1296.27C1145.07 1296.8 1143.2 1300.53 1142.13 1304.53C1140.93 1308.4 1136.8 1316.4 1132.67 1322.13C1116 1346.13 1112.67 1354.8 1111.33 1377.33C1110.13 1397.6 1108.13 1413.73 1105.2 1426.93C1101.6 1442.27 1102 1445.33 1108.27 1448.67L1113.2 1451.33L1119.33 1448.27C1127.07 1444.53 1132.27 1436.4 1135.33 1423.6C1139.87 1404.4 1145.33 1397.87 1153.33 1402C1161.87 1406.4 1164.13 1415.07 1160.8 1430.53C1158 1443.87 1152.27 1455.73 1145.87 1461.2C1143.07 1463.6 1136 1468.27 1130.27 1471.6C1121.2 1476.67 1119.33 1478.4 1117.07 1483.6C1114.67 1489.07 1114.53 1490.13 1116.27 1494.53C1118.93 1501.6 1124.93 1504.4 1135.87 1503.33C1154.93 1501.6 1177.07 1494.4 1187.6 1486.53C1199.07 1478 1210.53 1459.73 1218.27 1437.73C1221.87 1427.6 1222 1426.53 1222 1400C1221.87 1384.93 1220.67 1358 1219.33 1340C1216 1297.73 1218.53 1301.07 1188.53 1299.73C1176.13 1299.33 1162 1298 1157.2 1296.93C1151.87 1295.87 1147.47 1295.47 1146.27 1296.27Z" fill="black"/>
</g>
<g id="cuadriceps_anterior">
<path id="Vector_40" d="M505.866 1261.07C502.666 1264.53 493.866 1289.47 486.666 1315.07C474.133 1360 464.666 1412.4 461.2 1456.67C459.2 1481.07 460.4 1543.07 463.333 1566.67C472.266 1640.27 487.6 1688.53 523.6 1756C530.933 1769.73 535.466 1776 538 1776C541.333 1776 549.333 1767.87 553.066 1760.8C556.4 1754.4 556.666 1752.93 556.533 1736.67C556.4 1712.27 554.533 1707.6 527.866 1667.6C506.266 1635.2 496.533 1612.93 487.466 1574.67C482.933 1555.07 481.466 1544.8 479.866 1520C478.4 1497.47 478.533 1490.67 480.4 1468.67C486.133 1402.93 497.866 1362.93 526.666 1311.2C531.6 1302.4 536 1293.87 536.533 1292.4C537.6 1289.2 530.266 1279.87 516.266 1266.27C508.4 1258.4 508.266 1258.4 505.866 1261.07Z" fill="black"/>
<path id="Vector_41" d="M988 1273.47C979.867 1281.73 973.333 1288.8 973.333 1289.47C973.333 1290.13 976.667 1296.4 980.933 1303.6C1014.4 1361.6 1031.07 1432.13 1028.93 1507.33C1028 1537.87 1026.93 1548.13 1021.87 1573.33C1014.67 1609.2 1002 1639.07 979.733 1672.27C963.733 1696.13 956.933 1710.27 953.867 1725.6C952 1735.2 951.867 1738.53 953.2 1744.93C956.133 1760 967.067 1776.93 973.067 1775.73C976 1775.2 980.533 1768 992 1746C997.333 1735.73 1002.13 1726.67 1002.67 1726C1006.4 1720.67 1020.13 1682.27 1027.47 1656.67C1051.73 1572.67 1055.73 1482.53 1039.33 1388.53C1033.2 1353.47 1026.67 1325.6 1015.87 1288C1009.2 1265.07 1006.53 1258.67 1004 1258.67C1003.2 1258.67 996 1265.33 988 1273.47Z" fill="black"/>
<path id="Vector_42" d="M546 1314.93C536.133 1326.53 520.933 1361.47 511.467 1394.67C490.933 1466.67 490.267 1536.67 509.733 1596C517.067 1618.27 531.467 1646.13 551.333 1676.13C558.533 1687.2 568.933 1708.8 573.067 1722C577.333 1735.33 579.733 1737.87 583.867 1734C587.333 1731.07 589.067 1724.67 590.8 1709.6C592.267 1696.13 598.133 1671.6 609.867 1629.33C622.133 1585.6 623.333 1577.07 623.333 1535.33C623.333 1496.67 622.4 1489.07 613.2 1446.8C599.467 1384.27 575.867 1325.2 559.2 1312.13C554 1308.13 551.467 1308.67 546 1314.93Z" fill="black"/>
<path id="Vector_43" d="M952 1312.8C942.533 1320.8 928.4 1346 917.867 1373.87C910 1394.13 898.8 1434.4 893.333 1461.33C887.067 1492.4 886 1503.6 886 1537.33C886.133 1582.67 888.133 1593.33 910.4 1665.33C912.533 1672.27 915.333 1683.73 916.533 1690.67C923.867 1731.07 925.333 1736 930 1736C932.933 1736 935.467 1731.33 940.533 1715.87C946.133 1698.53 950.4 1690 965.333 1666C985.067 1634.27 994.4 1614.27 1002.67 1586C1023.47 1514.53 1011.73 1404.53 975.333 1330.27C969.2 1317.73 962.267 1309.33 958 1309.33C957.067 1309.33 954.267 1310.93 952 1312.8Z" fill="black"/>
<path id="Vector_44" d="M611.466 1364.93C611.866 1367.07 613.6 1373.73 615.333 1380C626.666 1421.47 634.4 1457.47 637.866 1484.93L640 1501.2L653.2 1526.93C671.466 1562.27 680.4 1585.87 689.333 1623.33C692.8 1637.73 698 1665.33 698.933 1675.07C699.466 1680.13 701.6 1680.27 702.933 1675.33C707.6 1657.87 714.666 1593.73 714.666 1568.4C714.666 1552.67 711.733 1527.87 707.866 1512.67C698.133 1473.2 665.066 1417.6 624.266 1372.27C613.866 1360.8 610 1358.53 611.466 1364.93Z" fill="black"/>
<path id="Vector_45" d="M889.6 1369.33C859.467 1402.93 835.467 1438.53 817.467 1476.13C791.733 1529.87 788.4 1584 805.467 1666.27C808.133 1678.8 810 1682.67 811.2 1678.27C811.467 1677.47 812.667 1669.73 814 1661.33C816.4 1644.8 821.6 1619.47 824.933 1608.67C836 1572 848.667 1541.47 863.867 1514.67C869.2 1505.33 869.867 1503.33 872.133 1486C877.467 1446.8 885.2 1411.07 896.133 1376C898.267 1369.07 900 1362.93 900 1362.4C900 1359.47 896 1362.27 889.6 1369.33Z" fill="black"/>
<path id="Vector_46" d="M639.467 1539.6C639.067 1542.4 638.667 1549.6 638.667 1555.73C638.667 1576.67 633.334 1604.4 621.067 1647.33C609.067 1689.6 608.267 1692.67 605.867 1710.27C603.067 1730.27 604.267 1742 611.2 1760C619.867 1782.27 636.4 1803.33 648 1806.8C653.067 1808.4 654.134 1808.27 658.4 1805.87C667.2 1801.2 675.867 1784.53 682.267 1760.13C692.8 1720.4 683.467 1638.13 661.734 1577.87C654.134 1556.67 644.4 1535.73 641.867 1534.93C641.067 1534.8 640 1536.8 639.467 1539.6Z" fill="black"/>
<path id="Vector_47" d="M859.6 1552.27C845.466 1583.47 835.066 1621.47 827.066 1671.33C823.733 1692.67 823.733 1740.53 827.066 1755.33C831.333 1773.87 838.266 1790.53 846 1800.8C855.333 1813.2 870 1808.13 884.533 1787.6C898.533 1767.87 903.866 1752.53 904.933 1729.33C905.733 1711.07 903.733 1696.4 897.866 1680C882.666 1636.8 873.866 1592.4 870.4 1542.13C870.133 1539.2 869.333 1536.67 868.533 1536.4C867.733 1536.13 863.733 1543.33 859.6 1552.27Z" fill="black"/>
</g>
<g id="rodillas_anterior">
<path id="Vector_48" d="M577.067 1768.53C571.333 1770.67 563.2 1777.33 549.333 1791.33L539.333 1801.47L539.467 1815.07C539.867 1841.2 544.267 1858 560.667 1896.67C566 1909.07 572.8 1926.27 576 1934.67C585.6 1961.07 586.933 1964 589.6 1965.47C591.867 1966.67 592.667 1965.47 597.867 1954.4C600.933 1947.6 604.4 1939.87 605.333 1937.33C607.867 1930.53 628 1886.93 635.867 1871.07C642.8 1856.93 650.667 1836.27 650.667 1832C650.667 1830.4 647.734 1827.47 642.667 1824C629.6 1815.07 617.467 1802.8 608 1788.67C598.133 1774.13 594.534 1770.27 588.933 1768.13C584.267 1766.27 583.2 1766.4 577.067 1768.53Z" fill="black"/>
<path id="Vector_49" d="M925.333 1767.73C919.466 1768.67 914 1774.13 904.533 1788.13C892.266 1806.27 886.8 1812.27 874.666 1820.8C868.933 1824.8 863.6 1828.93 862.666 1830C859.333 1834.13 862.533 1842.8 882.4 1883.2C891.333 1901.33 901.2 1924.13 913.466 1954.67C920.133 1971.2 921.333 1970.67 930.8 1946.67C964.8 1860.4 966.8 1854.67 970.667 1832.8C972.533 1821.47 972.4 1805.87 970.133 1801.6C968 1797.33 944.267 1773.73 938.933 1770.53C934.666 1767.87 929.867 1766.93 925.333 1767.73Z" fill="black"/>
</g>
<g id="gemelos_anterior">
<path id="Vector_50" d="M659.067 1861.6C656.8 1864.67 644.533 1886.93 635.733 1904C620 1934.93 605.867 1974.67 602.8 1996.67C598.4 2028 604 2063.6 619.6 2102.67C630.4 2129.73 649.333 2164.67 652.667 2163.6C654.267 2163.07 655.067 2160.8 668.667 2118.13C681.333 2078.53 684.933 2064.4 686.8 2048.27C690.533 2016.53 683.867 1965.2 670.133 1921.33C665.867 1907.87 662.4 1887.33 661.867 1872.8C661.6 1866.27 661.2 1860.67 660.933 1860.4C660.667 1860.13 659.733 1860.67 659.067 1861.6Z" fill="black"/>
<path id="Vector_51" d="M850.8 1877.73C849.6 1889.6 847.066 1902.93 843.066 1918.67C839.733 1931.47 835.6 1947.73 833.866 1954.67C822.4 1999.73 821.066 2042.4 830.133 2076.8C831.866 2083.6 837.733 2102.93 843.066 2119.6C848.533 2136.27 853.733 2153.2 854.666 2156.93C855.733 2160.8 856.933 2164 857.466 2164C860.666 2164 882.133 2124.27 892.4 2099.2C903.066 2073.33 908 2048.4 908 2020.27C908 2000.53 902.8 1969.73 896.666 1953.6C895.733 1950.8 892.4 1941.73 889.2 1933.33C880.666 1909.87 857.733 1863.33 853.466 1860.8C852.933 1860.4 851.6 1868 850.8 1877.73Z" fill="black"/>
<path id="Vector_52" d="M527.467 1872.27C523.733 1878.13 507.733 1920.67 503.867 1935.33C498 1957.07 496 1972.8 496 1996C496 2020.4 498.667 2047.33 503.2 2069.07C504.933 2077.6 512.267 2104.67 519.333 2129.2C544.133 2215.47 553.067 2260 554 2303.07C554.267 2313.87 555.067 2320.8 556 2322C556.933 2323.07 559.733 2324 562.4 2324C568.4 2324 576.133 2316.27 579.2 2307.07C582.8 2296.13 582.933 2284.93 580.8 2228.67C579.6 2198.53 578 2154.53 577.333 2130.67C573.2 1995.87 570 1967.73 553.467 1921.2C546.933 1902.67 533.067 1871.47 530.667 1870C530 1869.6 528.533 1870.67 527.467 1872.27Z" fill="black"/>
<path id="Vector_53" d="M975.467 1880.27C958.267 1917.6 950.933 1936.8 945.467 1958.27C938.133 1987.07 936.133 2011.6 930 2159.33C925.867 2257.47 925.067 2285.87 925.867 2293.73C928 2314 944.267 2332.13 952.267 2322.93C953.867 2321.2 954.533 2315.6 955.067 2298.67C955.6 2286.53 956.533 2273.07 957.2 2268.67C958 2264.27 959.467 2254.4 960.667 2246.67C965.333 2216.93 976 2172.13 988.667 2130C990.667 2123.33 994.667 2109.87 997.6 2100C1010.27 2057.73 1016 2014.53 1013.6 1980.67C1011.07 1946.8 1007.47 1930.93 994.267 1895.33C988.267 1879.07 984.133 1870.4 981.867 1869.73C981.067 1869.47 978.267 1874.27 975.467 1880.27Z" fill="black"/>
<g id="soleo_anterior_interno_externo">
<path id="Vector_54" d="M594 2093.6C592.934 2105.6 595.067 2193.33 597.334 2234.67C600.534 2292.27 601.867 2300.93 609.467 2312.4C617.6 2324.8 630 2329.2 635.867 2321.87C638.4 2318.67 638.534 2317.2 637.734 2294.93C637.2 2280.27 637.6 2260.13 638.8 2242C639.867 2225.87 640.667 2205.2 640.667 2196V2179.33L628.534 2156C615.734 2131.33 611.2 2120.93 603.2 2099.33C596.4 2080.4 595.2 2079.73 594 2093.6Z" fill="black"/>
<path id="Vector_55" d="M908.133 2096.93C904.267 2108.53 894.4 2129.2 873.733 2169.2L867.333 2181.6L867.6 2202.53C868.8 2315.73 868.933 2321.2 870.533 2323.07C872.8 2325.87 879.6 2326.93 885.467 2325.33C890.8 2323.87 898.667 2316 902 2308.67C906.8 2298.27 906.933 2297.07 910.533 2213.33C914.8 2117.07 915.6 2084 913.6 2084C913.067 2084 910.667 2089.87 908.133 2096.93Z" fill="black"/>
</g>
</g>
<g id="pies_anteriores">
<path id="Vector_56" d="M589.333 2342.13C582.933 2343.33 568.8 2348.27 562.8 2351.33C551.466 2357.07 550.666 2358.13 549.333 2370.67C547.333 2390.27 542.933 2404.67 533.733 2421.33C527.466 2432.93 522.666 2438.8 502 2460C481.6 2480.8 479.733 2483.47 476.8 2493.47C474.266 2501.87 475.333 2510.27 479.333 2514.67C487.333 2523.47 506.8 2526.67 556.666 2527.6C588.133 2528.13 595.466 2527.87 603.2 2526.13C615.066 2523.33 623.866 2518.53 627.866 2512.53C631.2 2507.6 634.666 2496.53 634.666 2490.53C634.666 2487.6 636.133 2485.87 642.4 2481.73C652.8 2474.8 655.333 2469.33 655.2 2455.33C654.933 2447.47 653.866 2441.07 650.533 2430.67C646.266 2417.07 646.133 2415.87 646 2391.87C645.866 2374.8 645.2 2365.73 644 2362.8C642.533 2359.2 639.733 2357.33 626.133 2350.67C612.533 2343.87 608.4 2342.53 601.2 2342.13C596.533 2341.73 591.2 2341.87 589.333 2342.13Z" fill="black"/>
<path id="Vector_57" d="M900 2344.53C897.467 2345.33 892.667 2347.47 889.333 2349.07C886 2350.67 880 2353.07 876 2354.27C864.8 2358 864.267 2359.73 863.6 2389.33C863.067 2411.2 862.667 2415.6 859.2 2428C856.267 2439.07 855.467 2444.93 855.467 2456C855.333 2472.4 856.933 2475.73 867.867 2482.53C874.267 2486.4 874.533 2486.8 875.333 2494.27C877.6 2513.47 885.333 2521.2 907.2 2526C916.267 2528 922.4 2528.27 953.2 2527.6C1001.33 2526.53 1020 2523.6 1027.6 2515.73C1031.07 2512.13 1031.33 2511.07 1031.2 2501.6C1031.07 2487.73 1028.53 2483.47 1003.33 2457.47C985.2 2438.53 982.4 2435.07 976.267 2423.07C968 2406.93 963.333 2391.33 962 2375.33C961.467 2368.67 960.267 2361.73 959.333 2359.87C957.2 2355.87 945.6 2349.47 933.467 2345.47C923.867 2342.27 907.867 2341.87 900 2344.53Z" fill="black"/>
</g>
</g>
<g id="cuerpo_completo_posterior">
<g id="cabeza_posterior">
<path id="Vector_58" d="M1956.67 116.133C1952.27 116.8 1943.6 118.8 1937.33 120.8C1902.13 131.6 1877.73 156.8 1869.33 191.466C1866 204.933 1863.73 231.733 1864.93 244.933C1865.73 254.666 1865.6 255.066 1863.2 254C1861.87 253.333 1858.27 252.666 1855.33 252.266C1850.93 251.866 1849.47 252.4 1846.93 255.066C1840.27 262.133 1840.53 275.333 1847.47 298.533C1855.6 325.466 1863.33 335.6 1872.8 331.866C1874.8 331.2 1876.67 330.8 1876.93 331.2C1877.2 331.466 1878.4 337.866 1879.47 345.2C1881.47 358.4 1884.4 368 1886.4 368C1886.93 368 1889.33 364.8 1891.6 360.8C1900.67 345.733 1920.67 331.333 1940 325.866C1944 324.8 1955.2 323.466 1964.67 323.066C1991.2 322 2008.27 325.466 2025.47 335.466C2035.47 341.466 2048.8 354.533 2053.33 363.066C2055.2 366.533 2057.33 369.333 2058.13 369.333C2060.53 369.333 2066 353.333 2067.33 342C2068.8 331.066 2069.07 330.533 2072.67 332.266C2080.53 335.866 2089.47 326.8 2095.2 309.6C2103.87 283.733 2106 264 2101.2 256.133C2098.53 251.733 2098.4 251.6 2090.8 252.4L2083.07 253.066L2083.73 231.466C2085.33 178.8 2072.13 149.866 2037.47 129.333C2016.53 116.933 1985.87 112 1956.67 116.133Z" fill="black"/>
</g>
<g id="hombros_posterior">
<path id="Vector_59" d="M1688.67 515.866C1635.73 522.533 1594.4 570 1584.67 635.333C1580.93 660.533 1582.67 689.6 1589.2 711.6C1593.07 724.4 1594.27 725.2 1603.73 721.333C1626.93 711.867 1663.6 691.2 1688 673.6C1713.73 655.066 1735.33 631.6 1758.4 597.2C1772 577.066 1785.33 551.867 1785.33 546.533C1785.33 541.867 1781.33 538.533 1768.67 532.266C1742.8 519.6 1711.07 513.066 1688.67 515.866Z" fill="black"/>
<path id="Vector_60" d="M2223.33 518C2211.33 520.267 2183.47 529.2 2171.07 534.667C2160.13 539.6 2157.6 543.467 2159.87 551.867C2163.2 564.667 2180.8 595.867 2198 619.333C2208.13 633.333 2236.4 661.333 2250.67 671.6C2277.33 690.667 2338.67 724 2347.2 724C2350.67 724 2353.2 720.133 2355.87 710.933C2367.6 670.533 2362.4 616.533 2343.07 578.267C2332.8 557.867 2315.2 539.333 2295.87 528.8C2275.6 517.6 2247.6 513.467 2223.33 518Z" fill="black"/>
</g>
<g id="trapecio_posterior">
<g id="trapecio_superior">
<path id="Vector_61" d="M1939.07 343.333C1930.53 345.867 1922.53 351.067 1915.87 358.267C1908.27 366.4 1904 373.733 1898.53 387.867C1893.33 401.467 1886.53 413.867 1881.2 419.333C1879.07 421.6 1877.33 424.133 1877.33 424.8C1877.33 425.6 1884.13 429.6 1892.4 433.733C1900.53 437.867 1915.87 445.867 1926.4 451.467C1946.8 462.267 1952.4 463.733 1957.33 459.333C1960 456.933 1960 455.6 1960 402.667C1960 349.733 1959.87 348.267 1957.2 344.8C1954 340.8 1948.4 340.267 1939.07 343.333Z" fill="black"/>
<path id="Vector_62" d="M1984.27 343.466L1981.33 345.466V400.533C1981.33 452.533 1981.47 455.866 1983.87 458.8C1987.73 463.6 1993.73 462.666 2010.13 454.266C2018.13 450.266 2028.27 444.933 2032.67 442.4C2037.07 440 2046.53 435.2 2053.73 432C2060.8 428.666 2066.67 425.333 2066.67 424.4C2066.67 423.6 2065.33 421.2 2063.6 419.066C2056.27 410.266 2051.07 401.2 2045.73 388C2042.53 380.266 2037.87 370.8 2035.07 366.933C2029.2 358.266 2016.8 349.2 2004.8 344.666C1994.67 340.8 1988.53 340.4 1984.27 343.466Z" fill="black"/>
</g>
<g id="trapecio_medio">
<path id="Vector_63" d="M1850.67 444.267C1845.2 447.467 1831.07 456 1819.33 463.2C1807.6 470.4 1793.47 479.067 1788 482.4C1767.2 494.934 1753.33 504.534 1753.73 505.734C1753.87 506.4 1757.33 508.267 1761.33 510C1765.33 511.6 1785.47 521.334 1806.13 531.467C1875.73 566 1908.27 577.867 1941.6 580.8C1951.73 581.734 1951.87 581.6 1955.87 577.6L1960 573.6V532.667C1960 485.467 1959.87 484.934 1949.33 478.934C1945.87 476.934 1927.2 467.334 1907.87 457.467C1865.33 436 1865.07 436 1850.67 444.267Z" fill="black"/>
<path id="Vector_64" d="M2070 440.134C2067.87 440.8 2060 444.667 2052.67 448.667C2045.33 452.667 2027.07 462.134 2012.13 469.734C1991.47 480.134 1984.67 484.134 1983.2 486.934C1980.4 492.267 1980.4 574.267 1983.2 578.134C1984.8 580.267 1986.67 580.667 1996.27 580.534C2024.13 580.267 2048 572 2133.33 533.067C2146.93 526.8 2165.2 518.934 2174 515.467C2196.53 506.667 2198.93 505.467 2198 504.134C2197.6 503.467 2193.2 500.667 2188.27 497.867C2183.33 495.2 2162.8 483.2 2142.67 471.334C2090.13 440.267 2086.93 438.667 2079.87 438.8C2076.67 438.8 2072.27 439.467 2070 440.134Z" fill="black"/>
</g>
<g id="trapecio_inferior">
<path id="Vector_65" d="M1857.87 578C1857.47 579.866 1857.33 582.4 1857.73 583.733C1881.07 663.6 1887.47 690.666 1894.67 741.333C1899.07 772 1901.6 780.533 1915.07 808.666C1927.6 835.066 1953.2 877.333 1956.53 877.333C1957.6 877.333 1958.8 876.4 1959.2 875.2C1959.6 874 1960 812.933 1960 739.2V605.333L1956.4 601.333C1952.93 597.466 1951.73 597.2 1936 595.333C1926.8 594.266 1916.93 592.666 1914 592C1904.67 589.466 1883.73 582.4 1873.6 578.533C1861.6 573.733 1858.93 573.6 1857.87 578Z" fill="black"/>
<path id="Vector_66" d="M2068.67 577.999C2052.67 584.799 2025.73 592.133 2006.13 595.199C1989.2 597.866 1985.73 598.799 1983.73 601.333C1981.47 604.133 1981.33 611.333 1981.33 740.799C1981.33 842.933 1981.73 877.466 1982.93 878.133C1985.07 879.466 1987.6 875.866 2000.4 853.599C2015.87 826.533 2026.67 804.933 2034.53 785.333C2040 771.866 2041.87 765.066 2044 750.666C2048.4 721.733 2053.2 694.799 2056 683.333C2057.33 677.466 2059.47 668.133 2060.67 662.533C2063.47 648.799 2069.33 627.733 2077.6 601.599C2084.8 578.933 2085.07 575.733 2079.2 575.066C2077.87 574.799 2073.07 576.133 2068.67 577.999Z" fill="black"/>
</g>
</g>
<g id="infraespinosos_posterior">
<path id="Vector_67" d="M1805.33 557.733C1803.6 558.667 1800 562.933 1797.47 567.333C1778 601.066 1766.13 618.533 1747.87 640.8C1743.47 646 1740 651.333 1740 652.8C1740 654.133 1743.33 660.266 1747.47 666.4C1766.93 695.066 1805.87 727.866 1840.93 745.333C1868.93 759.066 1877.33 757.066 1877.33 736.4C1877.33 726.933 1871.2 687.733 1866.67 668C1862.13 648.4 1848.93 603.066 1845.47 595.333C1834.13 569.867 1829.2 562.933 1819.33 558.533C1813.07 555.6 1809.87 555.467 1805.33 557.733Z" fill="black"/>
<path id="Vector_68" d="M2123.07 558.667C2119.87 560 2114.67 563.867 2111.47 567.2C2100.8 578.267 2089.6 609.333 2073.47 672.4C2062.67 714.4 2059.73 742.667 2065.47 749.867C2069.73 755.2 2077.07 754.667 2093.33 747.467C2119.33 736 2152.67 711.2 2175.87 685.733C2187.07 673.467 2201.33 654 2201.33 650.8C2201.33 649.6 2198 644.933 2194 640.267C2177.2 620.933 2160.27 596.133 2149.33 575.067C2145.47 567.6 2141.2 560.267 2139.73 558.8C2136.53 555.333 2130.53 555.2 2123.07 558.667Z" fill="black"/>
<path id="Vector_69" d="M2204.27 674.933C2193.47 689.067 2173.33 710.4 2161.47 720.4C2150.27 729.733 2141.33 736 2121.73 748.533C2116.4 751.867 2112 755.2 2112 755.867C2112 762.667 2160.27 762.667 2186 756C2213.33 748.8 2228.8 735.333 2233.2 714.933C2236.53 699.067 2234.4 684.933 2227.6 677.467C2223.47 673.067 2214.67 666.667 2212.4 666.667C2211.47 666.667 2207.87 670.4 2204.27 674.933Z" fill="black"/>
<path id="Vector_70" d="M1717.6 672.667C1714.67 675.333 1710.53 680.8 1708.4 685.067C1705.2 691.6 1704.67 694.267 1704.8 703.333C1704.8 712.533 1705.47 715.467 1708.93 722.933C1716 738 1726.4 746.133 1747.73 753.2C1764.8 758.8 1777.2 760.533 1800 760.533C1822.67 760.667 1829.33 759.867 1829.33 756.933C1829.33 756.133 1824.67 752.667 1819.07 749.333C1790.53 732.533 1760.8 707.2 1742.4 684C1727.73 665.333 1726.67 664.933 1717.6 672.667Z" fill="black"/>
</g>
<g id="triceps_posterior">
<path id="Vector_71" d="M2260.13 706.399C2252.13 713.199 2240.8 758.133 2237.33 796.666C2234.13 833.333 2242.67 883.333 2257.33 913.999C2265.47 931.066 2285.33 959.599 2287.87 957.999C2288.53 957.733 2289.33 950.399 2289.73 941.733C2291.07 918.133 2295.47 902.399 2308.4 876.266L2316.4 859.999L2315.6 842.266C2314.27 813.199 2305.73 776.799 2292.4 742.666C2281.2 714.133 2278.8 710.666 2267.73 706.133C2263.33 704.266 2262.67 704.266 2260.13 706.399Z" fill="black"/>
<path id="Vector_72" d="M1667.87 708.799C1662.53 711.866 1661.07 713.733 1655.47 725.066C1637.6 760.666 1624 814.533 1624 848.666V861.2L1631.87 876.933C1644.67 902.533 1650.67 925.466 1650.67 948.8C1650.67 955.466 1651.2 960 1652 960C1654.93 960 1673.87 932 1681.33 916.666C1696.13 886.266 1702.67 856.133 1702.67 817.733C1702.67 784.533 1698 753.733 1688.4 723.333C1682.4 704.799 1679.2 702.533 1667.87 708.799Z" fill="black"/>
<path id="Vector_73" d="M1634.67 725.333C1629.2 728.133 1617.2 733.6 1608.13 737.466C1592.93 743.999 1591.2 745.066 1585.33 752.133C1566.53 774.666 1556.27 797.733 1550.53 830.133C1548.27 842.933 1547.73 850.933 1547.87 872C1548 898.266 1551.07 924 1554 924.8C1554.8 925.066 1557.87 920 1560.93 913.466C1568.67 897.333 1580.4 882 1592.8 871.733C1610.53 857.333 1610.13 857.866 1611.2 846.666C1614.4 813.733 1626.53 769.066 1642.4 731.066C1644.67 725.733 1646.13 721.2 1645.6 720.799C1645.07 720.533 1640.13 722.533 1634.67 725.333Z" fill="black"/>
<path id="Vector_74" d="M2294.67 721.333C2294.67 722.133 2297.33 729.733 2300.53 738.4C2310.67 765.066 2315.73 781.333 2319.33 798C2323.47 816.8 2327.47 838.8 2328.8 849.733C2329.6 857.466 2329.73 857.466 2340.53 866.533C2359.2 882.133 2369.73 895.466 2380.53 917.2C2384.13 924.133 2386 926.533 2386.93 925.6C2391.87 920.666 2395.2 864 2392 839.2C2388.4 809.6 2378.53 781.466 2364.8 760.933C2355.2 746.533 2352.27 744 2337.33 738C2330.4 735.2 2318.4 730 2310.8 726.4C2296.4 719.733 2294.67 719.2 2294.67 721.333Z" fill="black"/>
</g>
<g id="dorsales_posterior">
<path id="Vector_75" d="M2200.53 768.133C2171.73 778 2134.53 780.133 2095.07 774C2073.33 770.533 2073.33 770.533 2067.47 773.067C2064.27 774.533 2060.27 777.733 2058.4 780.133C2056.53 782.667 2048 798.4 2039.33 815.333C2030.67 832.133 2019.07 853.733 2013.47 863.333C1993.6 897.867 1990.67 905.067 1990.67 920.933C1990.67 948.533 2004.67 966.4 2057.33 1006.53C2067.2 1014.13 2082.13 1026.93 2090.4 1035.2L2105.6 1050L2109.73 1044.93C2119.73 1032.93 2137.73 1006.4 2148.67 987.6C2160 968.133 2181.6 926.667 2187.73 912.667C2189.2 908.933 2192 902.667 2193.73 898.667C2201.07 881.733 2209.6 854.4 2212.53 837.867C2216.8 814.667 2220.53 766.933 2218.4 764.267C2216.67 762.267 2218.4 762 2200.53 768.133Z" fill="black"/>
<path id="Vector_76" d="M1720.93 764.933C1719.87 766.667 1722.27 800.4 1724.8 819.333C1727.33 838.267 1732.13 859.2 1737.33 874C1743.6 891.867 1759.6 928.933 1769.2 948C1789.33 987.867 1830 1049.33 1836.13 1049.33C1836.93 1049.33 1842.53 1044.53 1848.4 1038.53C1854.4 1032.67 1871.33 1018.4 1886 1006.93C1900.67 995.467 1918.4 980.4 1925.47 973.333C1936.4 962.533 1939.2 958.933 1944.13 948.667C1949.47 937.467 1949.87 936 1950.4 922.667C1951.07 904.667 1949.6 900.133 1933.47 873.6C1926.8 862.533 1919.47 850 1917.2 845.733C1914.93 841.467 1911.6 835.6 1910 832.667C1908.4 829.733 1902.67 818.667 1897.33 808C1884.4 782.4 1880 775.467 1874.8 773.333C1870.13 771.467 1861.73 771.867 1838 775.2C1807.33 779.6 1773.73 777.333 1744.67 769.2C1727.2 764.267 1721.87 763.333 1720.93 764.933Z" fill="black"/>
</g>
<g id="codos_posterior">
<path id="Vector_77" d="M1602.67 881.066C1591.73 889.2 1582.8 900.133 1576 914C1568.93 928.4 1566.53 937.733 1565.73 956C1565.2 967.6 1565.6 974.133 1567.33 982.666C1570.13 996.666 1579.07 1023.73 1581.87 1026.4C1584.93 1029.6 1589.07 1026.8 1604.67 1011.33C1619.33 996.666 1626.4 986 1631.07 971.333C1635.2 958 1635.2 930 1630.93 912.533C1627.6 899.333 1616.53 875.466 1613.33 875.066C1612.27 874.8 1607.47 877.6 1602.67 881.066Z" fill="black"/>
<path id="Vector_78" d="M2322.13 879.867C2309.33 900.133 2302.53 935.333 2306.53 960.933C2308.67 974.133 2316 989.733 2325.87 1001.6C2332.67 1009.87 2352.53 1028 2354.67 1028C2359.07 1028 2370.8 994.4 2373.33 974.667C2377.6 942 2368.13 912.533 2346.13 889.6C2339.2 882.267 2329.33 874.667 2326.8 874.667C2326 874.667 2323.87 877.067 2322.13 879.867Z" fill="black"/>
</g>
<g id="lumbar_posterior">
<path id="Vector_79" d="M1965.73 957.333C1963.33 958.8 1961.33 960.533 1961.33 961.2C1961.33 963.2 1938 986.267 1925.33 996.8C1919.07 1002 1908.27 1010.4 1901.33 1015.33C1878.8 1031.73 1863.07 1045.2 1858.67 1052C1849.87 1065.6 1845.47 1086.4 1845.33 1114.4C1845.33 1128.93 1847.33 1132.53 1858.27 1137.47C1893.73 1153.33 1910.4 1165.07 1940.8 1195.73C1952.13 1207.2 1963.07 1217.6 1965.07 1218.93C1972.4 1223.73 1972.8 1223.47 1997.33 1198C2024.93 1169.33 2044.67 1154.27 2070.13 1142.67C2090.67 1133.2 2091.2 1132.8 2093.73 1128C2096 1123.87 2096.13 1121.07 2095.33 1102.67C2094 1068.67 2090.4 1058.27 2074.8 1042.53C2069.2 1037.07 2054.8 1025.07 2042.67 1016C2015.07 995.333 2015.2 995.467 1992.53 973.2C1982.13 962.933 1972.93 954.667 1971.87 954.667C1970.8 954.667 1968 955.867 1965.73 957.333Z" fill="black"/>
</g>
<g id="antebrazos_posterior">
<path id="Vector_80" d="M2399.07 944.267C2398.27 945.201 2395.33 953.467 2392.27 962.667C2375.33 1014.67 2372.8 1025.6 2372.8 1047.33C2372.93 1063.73 2374.27 1073.2 2381.47 1104.27C2393.2 1155.47 2401.73 1208.4 2405.33 1252.67C2406.27 1264.8 2407.6 1272.93 2409.07 1276C2414 1286.13 2429.87 1286.13 2435.07 1276C2437.2 1271.87 2437.47 1268.93 2436.67 1247.33C2436.13 1231.73 2436.67 1211.33 2438 1188.67C2441.73 1125.73 2442.67 1095.2 2441.33 1073.47C2438.93 1034.67 2431.6 1002.93 2418.13 974.267C2412.8 962.934 2401.6 942.667 2400.67 942.667C2400.53 942.667 2399.73 943.467 2399.07 944.267Z" fill="black"/>
<path id="Vector_81" d="M1535.2 952.8C1528.8 962.667 1518.67 984.134 1513.47 998.667C1508.93 1011.07 1503.87 1033.73 1501.2 1053.33C1497.87 1077.6 1499.07 1137.87 1504.13 1198.93C1504.8 1207.47 1505.33 1228 1505.33 1244.67C1505.33 1263.73 1505.87 1275.87 1506.8 1277.6C1508.8 1281.33 1516.53 1284.27 1522 1283.2C1524.4 1282.8 1528.13 1280.67 1530.13 1278.53C1533.73 1274.8 1533.87 1274 1536.13 1247.73C1541.33 1187.47 1543.47 1173.87 1562.53 1084C1569.33 1051.73 1568.67 1032.8 1559.2 1000.4C1551.87 975.067 1542.93 947.734 1541.33 946.134C1540.67 945.467 1538 948.4 1535.2 952.8Z" fill="black"/>
<path id="Vector_82" d="M1642.4 988.933C1637.6 994.667 1624 1009.87 1612.13 1022.53C1583.07 1053.87 1582.67 1054.8 1571.87 1106C1559.47 1165.07 1550.67 1227.87 1550.67 1257.6C1550.67 1271.47 1550.8 1272.13 1554.4 1276.13C1557.47 1279.6 1558.93 1280.27 1564.27 1280.27C1571.73 1280.27 1578 1276.93 1579.87 1272.13C1580.53 1270.27 1582.4 1264 1584 1258.27C1588.13 1242.27 1593.6 1229.33 1606 1206C1640.27 1141.47 1649.87 1117.87 1655.6 1085.33C1660.13 1059.33 1657.47 978.667 1652 978.667C1651.47 978.667 1647.07 983.333 1642.4 988.933Z" fill="black"/>
<path id="Vector_83" d="M2285.47 986.933C2284.67 991.6 2283.2 1005.47 2282.4 1018C2278.4 1078.13 2289.87 1123.07 2325.47 1187.33C2342.67 1218.13 2353.47 1242.8 2360.53 1266.93C2363.33 1276.4 2367.47 1280 2375.6 1280C2388.67 1280 2391.33 1274.93 2390.13 1252.8C2387.87 1214.4 2379.87 1163.73 2366 1100.27C2356.93 1058.8 2357.47 1060.4 2350 1048.8C2345.33 1041.6 2337.33 1032.4 2319.07 1013.33C2314.4 1008.53 2306 998.8 2300.27 991.733C2294.67 984.667 2289.33 978.8 2288.53 978.8C2287.6 978.667 2286.27 982.4 2285.47 986.933Z" fill="black"/>
</g>
<g id="oblicuos_externos_posterior">
<path id="Vector_84" d="M1805.08 1019C1807.12 1022.93 1815.64 1035.58 1821.86 1047.5C1828.58 1059 1834.61 1066.11 1835.76 1069C1838.79 1076.87 1837.9 1091.35 1838.08 1108.59L1836.81 1124L1836.08 1128C1834.12 1130.2 1832.9 1130.5 1829.08 1130.5C1823.47 1130.5 1815.58 1131 1808.08 1134.5C1805.76 1136.24 1795.08 1139 1789.08 1143.5L1780.08 1149.5V1146C1779.01 1135.82 1789.43 1094.94 1791.12 1080.35C1791.92 1073.3 1793.52 1060.8 1794.68 1052.58C1795.84 1044.25 1795.78 1031.67 1796.58 1024.5C1797.55 1016.86 1797.95 1011 1798.58 1011C1799.11 1011 1803.12 1014.95 1805.08 1019Z" fill="black"/>
<path id="Vector_85" d="M2136 1018C2133.95 1021.93 2125.44 1034.58 2119.21 1046.5C2112.5 1058 2106.47 1065.11 2105.31 1068C2102.29 1075.87 2103.18 1090.35 2103 1107.59L2104.27 1123L2105 1127C2106.96 1129.2 2108.18 1129.5 2112 1129.5C2117.6 1129.5 2125.5 1130 2133 1133.5C2135.31 1135.24 2146 1138 2152 1142.5L2161 1148.5V1145C2162.07 1134.82 2151.64 1093.94 2149.95 1079.35C2149.15 1072.3 2147.55 1059.8 2146.4 1051.58C2145.24 1043.25 2145.3 1030.67 2144.5 1023.5C2143.52 1015.86 2143.12 1010 2142.5 1010C2141.97 1010 2137.96 1013.95 2136 1018Z" fill="black"/>
</g>
<g id="Gluteos_posterior">
<path id="Vector_86" d="M1814.67 1149.2C1793.33 1152.67 1780 1162.53 1764 1186C1755.87 1198 1752.8 1204.27 1746.53 1220.93C1734.67 1252.4 1730.93 1284.8 1735.33 1317.6C1739.87 1351.87 1748.4 1372.53 1764.67 1388.67C1775.33 1399.47 1784.93 1404.93 1802 1410.13C1812.8 1413.47 1816 1413.87 1834.67 1413.87C1874.27 1414 1902.93 1403.47 1926 1380.67C1947.33 1359.33 1958.67 1330.13 1958.67 1296.27C1958.67 1247.2 1936.8 1206 1893.33 1173.73C1869.07 1155.6 1836.8 1145.6 1814.67 1149.2Z" fill="black"/>
<path id="Vector_87" d="M2104.67 1149.47C2077.73 1153.33 2050.13 1168.4 2026.67 1191.87C2002.13 1216.4 1987.6 1242.4 1982.53 1270.67C1980 1284.53 1980.4 1311.6 1983.2 1323.73C1989.6 1352 2002.4 1372.67 2022.93 1388.4C2052.53 1411.07 2094.8 1419.47 2132 1410.13C2150.13 1405.6 2160.8 1400.27 2171.33 1390.4C2194.27 1369.07 2204.4 1339.33 2204.27 1294.67C2204.27 1261.73 2199.6 1238.8 2186.8 1208.8C2177.33 1186.4 2163.33 1167.6 2149.6 1158.93C2137.33 1151.07 2119.47 1147.33 2104.67 1149.47Z" fill="black"/>
</g>
<g id="manos_posterior">
<path id="Vector_88" d="M1564.67 1296.93C1560.8 1298 1548.93 1299.2 1536.67 1299.6C1513.87 1300.4 1508.53 1301.73 1507.33 1307.07C1506.4 1311.33 1503.07 1352.53 1501.2 1384.4C1498.93 1421.47 1500.4 1430.27 1512.93 1455.07C1522.93 1475.07 1534.27 1488 1547.07 1493.73C1563.07 1501.2 1588 1506 1597.6 1503.6C1603.73 1502 1606.67 1497.87 1606.67 1490.67C1606.67 1482.13 1602.93 1477.87 1589.6 1470.53C1574.13 1462.13 1568.53 1456.13 1563.6 1442.67C1557.33 1425.07 1558.13 1411.07 1566.13 1404C1571.47 1399.33 1572.13 1399.33 1577.33 1402C1581.47 1404.13 1583.07 1408.13 1586.67 1425.6C1589.6 1440.53 1601.6 1452.53 1610.27 1449.73C1612.27 1449.07 1615.07 1446.93 1616.53 1444.93L1619.2 1441.33L1615.6 1424.4C1611.47 1404.27 1611.07 1400.93 1609.33 1376.93C1607.87 1355.47 1606.8 1352.4 1592.13 1328C1586.67 1318.8 1581.33 1308.4 1580.4 1304.8C1577.6 1294 1576.53 1293.47 1564.67 1296.93Z" fill="black"/>
<path id="Vector_89" d="M2365.6 1297.07C2364.13 1298.27 2362.27 1302.13 2361.47 1305.6C2360.53 1309.47 2356.27 1317.6 2350.67 1326C2345.6 1333.73 2339.6 1343.87 2337.2 1348.67C2333.2 1356.93 2332.8 1358.67 2331.87 1377.33C2330.67 1399.73 2329.2 1410 2325.07 1427.73C2322.4 1439.07 2322.27 1440.53 2324.13 1443.73C2327.07 1449.07 2332.4 1451.2 2338 1449.33C2347.2 1446.27 2353.73 1434.67 2357.33 1415.47C2360.13 1400.53 2367.33 1396 2375.73 1403.73C2381.47 1409.2 2383.33 1417.07 2381.6 1428.27C2377.87 1449.73 2370.27 1460.8 2352.13 1470.53C2337.87 1478.27 2334 1482.4 2334 1490C2334 1494.67 2334.8 1496.67 2337.6 1499.47C2342.53 1504.53 2350.93 1505.07 2368.4 1501.47C2402.8 1494.4 2415.6 1484.13 2430.67 1451.33C2441.6 1427.6 2443.2 1416.4 2441.33 1378.53C2439.07 1333.2 2436.67 1308.53 2434.13 1304.67C2431.33 1300.53 2430.27 1300.27 2405.33 1299.47C2394 1299.2 2382.53 1298.27 2380 1297.6C2369.87 1294.67 2368.27 1294.67 2365.6 1297.07Z" fill="black"/>
</g>
<g id="abductor_posterior">
<path id="Vector_90" d="M2217.07 1330.13C2216.53 1330.8 2215.47 1335.2 2214.67 1340C2212.53 1351.73 2206 1370.8 2200.53 1381.33C2192.4 1396.8 2176.53 1413.6 2165.07 1418.8C2162.93 1419.73 2161.33 1421.07 2161.33 1421.73C2161.33 1422.53 2164 1426.53 2167.2 1430.53C2196.13 1467.6 2216 1524.13 2222 1586.67C2223.07 1597.33 2224.27 1619.07 2224.8 1635.07C2225.33 1651.07 2226.13 1663.6 2226.67 1663.07C2230.8 1658.53 2240.13 1599.2 2242.8 1560.67C2245.07 1528 2242.4 1464.8 2237.33 1434C2236.67 1429.6 2234.53 1416.13 2232.67 1404C2229.47 1383.6 2221.33 1341.87 2218.93 1332.67C2218.27 1330.53 2217.47 1329.33 2217.07 1330.13Z" fill="black"/>
<path id="Vector_91" d="M1717.6 1344.93C1714 1360.67 1711.07 1376 1705.2 1410.67C1695.07 1470.53 1692.8 1535.6 1698.67 1590C1701.73 1618.13 1709.73 1662 1712.13 1663.47C1712.8 1663.87 1713.33 1655.2 1713.33 1643.07C1713.33 1599.47 1717.47 1564.8 1726.67 1528.53C1736.27 1491.07 1749.33 1462.67 1771.6 1431.2C1774.8 1426.67 1777.33 1422.4 1777.33 1421.6C1777.33 1420.93 1774.13 1418.53 1770.4 1416.27C1755.6 1408 1742.67 1393.2 1734.67 1375.47C1732.67 1370.93 1729.33 1360.4 1727.33 1352C1725.33 1343.6 1723.47 1335.87 1723.2 1334.93C1722 1330.8 1720 1334.27 1717.6 1344.93Z" fill="black"/>
</g>
<g id="aductor_posterior">
<path id="Vector_92" d="M1953.07 1376.8C1935.47 1397.6 1928.53 1404 1913.87 1413.07C1904.4 1418.93 1886.93 1426.67 1883.2 1426.67C1882.4 1426.67 1880.67 1427.73 1879.47 1429.2C1877.33 1431.47 1877.47 1432.13 1880.13 1438.8C1897.2 1482 1909.6 1529.33 1913.2 1565.07C1917.07 1602.8 1913.07 1653.2 1902 1706.67C1891.2 1758.67 1884.67 1808 1889.2 1803.2C1889.87 1802.53 1893.47 1790.93 1897.33 1777.33C1904 1753.33 1905.2 1749.2 1910.8 1728C1914.13 1715.2 1921.73 1680.27 1924.67 1664C1926 1657.07 1928.4 1644.67 1930.13 1636.67C1933.07 1623.07 1940.27 1585.87 1944.67 1562.67C1951.87 1524.27 1956.8 1468.4 1958.27 1409.87C1959.2 1372.67 1958.8 1370 1953.07 1376.8Z" fill="black"/>
<path id="Vector_93" d="M1982 1376C1980.27 1378.67 1981.2 1447.47 1983.33 1474C1988.13 1537.33 1995.33 1581.73 2016.8 1678.67C2026.67 1723.2 2047.07 1802.13 2049.47 1804.53C2051.6 1806.93 2050.8 1784.8 2048 1769.2C2046.53 1760.8 2042.13 1737.47 2038.13 1717.33C2027.73 1664.93 2026.53 1654.4 2025.73 1612C2025.07 1579.33 2025.33 1573.07 2028 1554.67C2031.6 1528.27 2038.8 1500.4 2051.6 1462.27C2059.33 1439.33 2061.6 1431.33 2060.53 1429.73C2059.73 1428.53 2053.87 1425.33 2047.2 1422.8C2023.73 1413.33 2007.33 1401.87 1993.07 1384.53C1984.53 1374.4 1983.47 1373.6 1982 1376Z" fill="black"/>
</g>
<g id="isquiotibial_posterior">
<path id="Vector_94" d="M1788.67 1436.53C1778 1447.6 1758.4 1483.07 1750.93 1504.67C1734.13 1553.33 1726.67 1609.87 1728.53 1672.67C1729.2 1696.27 1731.47 1720 1735.87 1750C1738.4 1767.2 1740.27 1792.53 1739.73 1805.6C1739.6 1812.67 1739.73 1818.8 1740.13 1819.33C1740.67 1819.73 1742.53 1817.47 1744.4 1814.4C1749.2 1806.13 1778.13 1749.2 1779.07 1746C1779.6 1744.53 1780.8 1740.93 1782 1738C1783.2 1735.07 1785.87 1725.47 1788.13 1716.67L1792.27 1700.67L1793.33 1633.33C1794.53 1563.47 1796.13 1531.73 1801.2 1484.67C1805.6 1444.13 1805.87 1437.6 1803.47 1434.13C1800 1428.8 1795.2 1429.6 1788.67 1436.53Z" fill="black"/>
<path id="Vector_95" d="M2136.8 1433.6C2134.13 1437.47 2134.13 1447.33 2136.67 1476.67C2142.27 1539.07 2142.8 1549.6 2143.47 1613.33C2144.13 1684.67 2145.07 1698.93 2150.13 1719.2C2158.13 1751.07 2188.27 1818.67 2194.53 1818.67C2195.07 1818.67 2196 1809.2 2196.4 1797.6C2196.8 1786.13 2198.53 1769.2 2200 1760C2214.93 1669.73 2212.67 1587.2 2193.2 1520.13C2185.47 1493.6 2175.07 1471.07 2160.4 1448.93C2148.53 1431.2 2141.6 1426.67 2136.8 1433.6Z" fill="black"/>
<path id="Vector_96" d="M1827.07 1434.27C1825.33 1434.53 1822.93 1436.27 1821.47 1438.13C1817.87 1442.67 1817.07 1448.67 1810.67 1518C1808.67 1539.6 1806.67 1591.6 1806.67 1621.33C1806.67 1662 1808.8 1691.07 1812.8 1708.93C1817.6 1730.8 1829.33 1764.27 1839.47 1785.33C1849.33 1806 1863.87 1830.67 1866 1830.67C1866.93 1830.67 1868.67 1821.87 1870.53 1807.6C1872.27 1795.07 1875.07 1776.8 1876.93 1767.33C1899.2 1647.2 1902.53 1605.47 1893.87 1546.93C1889.87 1519.6 1880 1481.6 1870.4 1457.33C1864.4 1442 1862.8 1438.8 1859.6 1436.8C1856.67 1434.93 1832.8 1433.07 1827.07 1434.27Z" fill="black"/>
<path id="Vector_97" d="M2088.93 1434.53C2079.6 1435.87 2077.07 1439.33 2069.47 1460C2037.33 1548.93 2032.67 1613.07 2051.33 1708C2057.87 1741.6 2063.73 1778.93 2068.4 1817.87C2069.33 1825.2 2070.67 1831.33 2071.33 1831.6C2075.07 1832.8 2106.8 1767.07 2116.53 1738.27C2125.6 1711.2 2129.07 1691.33 2130.4 1659.33C2131.87 1626.27 2130 1526.53 2127.47 1502.67C2126.4 1492 2125.2 1478.27 2124.67 1472C2123.07 1448.93 2120 1437.6 2114.8 1434.67C2112 1433.2 2099.2 1433.2 2088.93 1434.53Z" fill="black"/>
</g>
<g id="rodillas_posterior">
<path id="Vector_98" d="M1800.4 1734.27C1799.47 1734.67 1798.67 1735.6 1798.67 1736.4C1798.67 1739.87 1786.67 1766.4 1772.53 1794C1758.27 1822.13 1752.13 1836.53 1753.73 1838.27C1754.13 1838.67 1758.27 1835.73 1762.67 1831.73C1772.8 1822.8 1782.8 1816.67 1790.67 1814.53C1796.13 1813.07 1797.33 1813.2 1804 1816.4C1817.07 1822.67 1830 1835.2 1849.6 1861.07C1854.8 1867.73 1859.47 1873.73 1860.13 1874.13C1862.27 1875.47 1861.33 1866.8 1858.53 1858.4C1854.93 1848.13 1845.33 1828.13 1829.47 1798C1822.8 1785.47 1814.67 1767.87 1811.33 1758.67C1807.87 1749.47 1804.4 1740.13 1803.6 1737.87C1802.67 1735.6 1801.2 1734 1800.4 1734.27Z" fill="black"/>
<path id="Vector_99" d="M2133.33 1738.27C2128.8 1752.27 2118.27 1776.93 2105.73 1802.67C2089.73 1835.33 2078.67 1861.73 2077.6 1869.87C2076.93 1874.93 2077.07 1875.2 2079.2 1873.33C2080.53 1872.27 2085.87 1865.47 2091.07 1858C2108.8 1832.93 2131.73 1813.33 2143.2 1813.33C2149.6 1813.33 2160.27 1819.6 2173.73 1831.07C2178 1834.67 2181.87 1837.33 2182.27 1836.93C2183.33 1835.73 2180.53 1829.33 2164.93 1797.33C2157.33 1781.6 2147.87 1760.67 2144 1750.93C2140.13 1741.33 2136.53 1733.33 2135.87 1733.33C2135.33 1733.33 2134.13 1735.6 2133.33 1738.27Z" fill="black"/>
</g>
<g id="gemelos_posterior">
<path id="gemelo_izquierdo_exterior" d="M1772.67 1847.07C1753.33 1868 1728.4 1906.8 1718.4 1931.6C1712.67 1945.73 1706.27 1968.27 1703.73 1982.67C1702.67 1989.07 1702.13 2003.07 1702.27 2021.33C1702.4 2046.93 1702.8 2051.73 1706 2066.53C1711.33 2091.73 1720.8 2116.13 1728.4 2124.27C1736.8 2133.2 1749.2 2134.4 1758.4 2127.07C1763.87 2122.67 1773.73 2104.8 1775.2 2096.4C1778 2080.53 1778.4 2074.8 1777.2 2066.13C1774 2041.6 1772 2016 1772 1995.6C1772 1967.73 1773.6 1952.4 1781.33 1903.33C1788.93 1855.73 1790.27 1839.6 1786.67 1837.33C1785.6 1836.67 1784.27 1836 1783.73 1836C1783.2 1836 1778.27 1840.93 1772.67 1847.07Z" fill="black"/>
<path id="gemelo_derecho_exterior" d="M2150.93 1838.93C2147.33 1843.6 2148.53 1865.73 2153.87 1897.33C2165.87 1967.47 2167.47 2002.8 2161.07 2065.6C2159.47 2082.13 2160 2087.33 2165.47 2104.67C2172.13 2125.47 2184.8 2136.4 2197.6 2132.13C2218.67 2125.2 2234.8 2076 2234.93 2018C2235.07 1970.27 2220.93 1924 2194.27 1883.73C2177.6 1858.8 2159.07 1837.33 2154.13 1837.33C2153.2 1837.33 2151.73 1838.13 2150.93 1838.93Z" fill="black"/>
<path id="gemelo_izquierdo_interior" d="M1806.93 1839.73C1804.13 1841.6 1791.73 1916.8 1787.33 1958C1783.87 1990.93 1785.47 2034.27 1791.33 2065.6C1796.53 2093.33 1813.07 2120.27 1835.07 2136.8C1845.47 2144.53 1849.2 2144.67 1856.67 2136.93C1865.33 2127.73 1876.93 2102 1882 2080.53C1885.73 2064.13 1887.2 2038.93 1885.47 2017.07C1883.47 1990.67 1879.2 1971.73 1868.53 1941.07C1863.47 1926.53 1851.47 1898.53 1845.73 1888.27C1833.6 1866 1810.67 1837.33 1806.93 1839.73Z" fill="black"/>
<path id="gemelo_derecho_interior" d="M2120.13 1847.33C2099.87 1869.6 2074.13 1920.93 2062.13 1962.93C2054.4 1990.13 2052.8 2002.4 2052.67 2035.33C2052.67 2060.4 2053.07 2068 2055.2 2077.33C2062.8 2112 2078.27 2141.33 2088.8 2141.33C2094.13 2141.33 2103.6 2135.2 2113.73 2124.93C2142 2096.67 2150.67 2066.67 2150.67 1996.67C2150.67 1961.73 2147.87 1933.6 2138.67 1878.67C2137.33 1870.27 2135.73 1859.47 2135.2 1854.67C2133.47 1837.47 2130.53 1836.13 2120.13 1847.33Z" fill="black"/>
</g>
<g id="talon">
<path id="Vector_100" d="M1786.93 2111.07C1786.27 2112 1784.4 2116.27 1782.67 2120.53C1780.4 2126.13 1776.67 2131.47 1769.6 2139.07C1759.73 2149.6 1759.73 2149.6 1760.53 2155.6C1760.93 2158.8 1764.27 2171.87 1767.87 2184.4C1782.8 2236.93 1790.27 2267.47 1798 2305.87C1801.2 2322.4 1804.93 2337.87 1806 2340C1808.8 2345.47 1813.07 2348 1819.73 2348C1824.27 2348 1826.27 2347.2 1829.2 2344.27C1832.67 2340.8 1832.8 2340.13 1834.53 2315.33C1836.13 2290.27 1838.67 2264.27 1843.87 2218.67C1847.07 2190.67 1848.53 2165.2 1847.07 2163.2C1846.53 2162.4 1841.6 2159.47 1836.27 2156.53C1823.33 2149.73 1808.8 2136 1799.33 2122.13C1791.33 2110.4 1789.07 2108.4 1786.93 2111.07Z" fill="black"/>
<path id="Vector_101" d="M2138.27 2120.93C2128 2135.6 2110.8 2151.6 2099.33 2157.47L2090 2162.27L2090.27 2177.33C2090.53 2185.6 2092.13 2204.8 2094 2219.87C2098.93 2260.67 2101.33 2287.47 2102.53 2314.27C2103.33 2333.47 2104 2339.07 2105.73 2341.87C2112.13 2351.6 2126 2350.67 2131.33 2340C2133.2 2336.27 2133.2 2335.87 2138.67 2306C2146.13 2265.07 2160.4 2209.87 2174.13 2168.13C2176.67 2160.53 2178.67 2153.47 2178.67 2152.4C2178.67 2151.47 2174.67 2146.4 2169.73 2141.47C2163.87 2135.47 2158.8 2128.53 2155.33 2121.73C2152.4 2116 2148.93 2111.2 2147.73 2110.93C2146.4 2110.67 2143.07 2114.13 2138.27 2120.93Z" fill="black"/>
</g>
<g id="soleo_posterior_interno_externo">
<path id="Vector_102" d="M1728.67 2149.47C1726.53 2156.13 1731.6 2189.2 1741.47 2232.13C1753.07 2282.93 1759.6 2317.33 1760.67 2332.67C1761.07 2340 1762.13 2347.73 1762.93 2349.73C1766 2357.73 1777.2 2359.2 1782.67 2352.4C1787.07 2346.8 1786.4 2325.73 1781.2 2301.33C1776.27 2278.27 1764 2233.47 1754 2202C1750.13 2189.47 1745.47 2174.93 1743.87 2169.6C1740.8 2159.33 1736 2150.8 1731.87 2148.27C1729.87 2146.93 1729.33 2147.2 1728.67 2149.47Z" fill="black"/>
<path id="Vector_103" d="M2205.07 2148.13C2197.47 2152.4 2188 2176.53 2174.13 2227.33C2152.27 2307.6 2146.67 2339.6 2152.27 2350.13C2155.07 2355.33 2161.6 2358.27 2166.27 2356.53C2172.67 2354.27 2174.4 2350 2176 2332C2177.87 2309.47 2181.73 2288.4 2189.87 2255.33C2201.33 2208.27 2211.6 2149.47 2208.4 2147.6C2207.87 2147.2 2206.27 2147.47 2205.07 2148.13Z" fill="black"/>
</g>
<g id="pies_posteriores">
<path id="Vector_104" d="M2108 2368.93C2102.67 2370.67 2099.6 2372.93 2096.93 2377.2C2094.27 2381.73 2094 2383.73 2093.87 2406C2093.87 2427.2 2093.33 2432.67 2089.47 2453.33C2082.27 2491.33 2084.4 2507.73 2097.47 2516.8C2106.13 2522.8 2113.47 2524.13 2134.8 2524.13C2154 2524 2165.47 2522.53 2180.67 2517.87C2184.4 2516.8 2195.6 2514.13 2205.6 2512C2231.6 2506.53 2244.8 2502.8 2249.6 2499.47C2263.73 2490 2262.27 2467.33 2247.2 2457.6C2244 2455.6 2236.27 2450.93 2229.87 2447.33C2214.13 2438.4 2198 2422.53 2192.13 2410.53C2189.73 2405.6 2187.07 2397.07 2185.87 2390.67C2184.8 2384.4 2183.47 2378.93 2182.8 2378.27C2182.13 2377.6 2178 2377.87 2173.47 2378.8C2164.67 2380.67 2160.67 2379.87 2138 2371.47C2129.07 2368.27 2114 2366.93 2108 2368.93Z" fill="black"/>
<path id="Vector_105" d="M1792.67 2374.8C1778.4 2379.6 1775.6 2380.13 1766 2379.73L1755.47 2379.33L1754.53 2383.33C1754 2385.47 1752.8 2391.47 1752 2396.67C1748 2419.87 1734.4 2436.67 1707.73 2451.33C1688.67 2461.87 1680.8 2471.6 1680.8 2484.67C1680.8 2500.13 1688.93 2504.53 1732.67 2512.8C1739.33 2514 1751.87 2517.07 1760.67 2519.73C1776.27 2524.27 1777.33 2524.4 1800 2524.53C1821.2 2524.53 1824 2524.27 1830.93 2521.6C1844.93 2516 1853.33 2503.6 1853.33 2488.4C1853.33 2480.53 1849.87 2455.73 1846.67 2441.33C1844.53 2431.6 1843.73 2423.33 1843.6 2405.33C1843.33 2383.2 1843.2 2381.73 1840.27 2377.6C1835.6 2371.07 1830.93 2369.33 1819.07 2369.33C1810.53 2369.33 1805.87 2370.4 1792.67 2374.8Z" fill="black"/>
</g>
</g>
</g>
</svg>
