<?xml version="1.0" standalone="no"?>
<!DOCTYPE svg PUBLIC "-//W3C//DTD SVG 20010904//EN"
 "http://www.w3.org/TR/2001/REC-SVG-20010904/DTD/svg10.dtd">
<svg version="1.0" xmlns="http://www.w3.org/2000/svg"
 width="1254.000000pt" height="1254.000000pt" viewBox="0 0 1254.000000 1254.000000"
 preserveAspectRatio="xMidYMid meet">

<g transform="translate(0.000000,1254.000000) scale(0.100000,-0.100000)"
fill="currentColor" stroke="none">
<path d="M4655 11074 c-388 -40 -1017 -281 -1730 -662 -226 -121 -289 -163
-380 -256 -113 -114 -164 -234 -165 -381 -1 -197 100 -720 185 -963 225 -644
752 -1003 1615 -1098 196 -22 625 -29 885 -15 567 31 569 31 700 99 91 48 179
136 227 228 71 135 69 91 66 1197 l-3 992 -27 72 c-53 143 -122 226 -287 342
-369 261 -602 388 -784 427 -75 16 -232 25 -302 18z"/>
<path d="M7700 11074 c-209 -26 -386 -104 -699 -311 -306 -201 -389 -274 -450
-397 -69 -137 -65 -79 -69 -1143 -2 -830 0 -972 13 -1034 43 -207 182 -365
384 -435 60 -21 107 -27 333 -41 326 -21 920 -24 1098 -5 654 68 1085 252
1383 591 227 258 358 611 443 1191 33 230 39 314 25 395 -34 195 -144 313
-452 488 -435 246 -1047 512 -1443 627 -197 56 -444 89 -566 74z"/>
<path d="M2907 7652 c-21 -23 -21 -60 -2 -232 81 -708 213 -1163 419 -1435
261 -346 706 -623 1202 -750 194 -50 377 -74 665 -87 357 -16 468 -2 601 78
82 50 158 130 200 210 67 128 68 131 68 796 0 400 -4 614 -11 650 -33 158
-148 305 -292 374 -122 57 -161 61 -535 41 -180 -10 -390 -20 -467 -23 -161
-7 -499 9 -690 32 -380 46 -753 166 -1026 330 -63 38 -108 43 -132 16z"/>
<path d="M9515 7639 c-159 -96 -385 -190 -582 -244 -439 -121 -888 -146 -1658
-95 -205 14 -319 12 -389 -6 -179 -46 -319 -183 -382 -374 -17 -50 -19 -108
-22 -651 -3 -507 -1 -606 12 -669 44 -210 187 -368 391 -433 65 -20 88 -22
325 -21 285 1 457 17 692 64 458 92 875 308 1165 602 252 256 356 477 467 990
51 233 116 674 116 781 0 27 -5 57 -10 68 -16 28 -66 23 -125 -12z"/>
<path d="M3270 5380 c-25 -25 -25 -47 -4 -342 53 -759 156 -1301 311 -1628
255 -541 775 -963 1458 -1184 194 -63 462 -116 581 -116 154 0 306 94 381 237
64 118 63 101 63 1039 0 809 -1 855 -19 926 -29 111 -65 174 -145 253 -135
134 -227 165 -491 165 -819 1 -1393 172 -1952 581 -66 49 -131 89 -142 89 -12
0 -30 -9 -41 -20z"/>
<path d="M9119 5328 c-354 -269 -735 -441 -1167 -528 -226 -45 -390 -60 -702
-66 -157 -3 -307 -10 -335 -16 -187 -39 -346 -188 -408 -383 l-22 -70 0 -885
0 -885 23 -65 c32 -88 61 -136 117 -192 95 -93 214 -135 353 -124 275 21 656
136 953 287 621 316 1005 772 1165 1382 82 313 169 972 191 1443 6 125 5 132
-16 153 -11 11 -29 21 -39 21 -11 0 -61 -32 -113 -72z"/>
</g>
</svg>
