<?xml version="1.0" standalone="no"?>
<!DOCTYPE svg PUBLIC "-//W3C//DTD SVG 20010904//EN"
 "http://www.w3.org/TR/2001/REC-SVG-20010904/DTD/svg10.dtd">
<svg version="1.0" xmlns="http://www.w3.org/2000/svg"
 width="206.000000pt" height="244.000000pt" viewBox="0 0 206.000000 244.000000"
 preserveAspectRatio="xMidYMid meet">

<g transform="translate(0.000000,244.000000) scale(0.100000,-0.100000)"
fill="currentColor" stroke="none">
<path d="M1150 2339 c-34 -14 -56 -35 -107 -103 -33 -45 -43 -67 -43 -96 0
-61 7 -70 54 -70 23 0 79 -11 125 -25 110 -32 141 -21 141 53 0 38 14 54 41
50 45 -6 38 -108 -11 -157 -44 -43 -89 -47 -185 -17 -99 32 -120 32 -140 2
-32 -49 8 -92 129 -141 85 -33 170 -38 210 -12 38 25 71 19 71 -13 0 -20 -10
-30 -45 -47 -25 -13 -57 -24 -72 -25 -25 -2 -26 -5 -33 -81 -7 -89 -17 -124
-70 -249 -20 -49 -40 -114 -46 -145 -8 -51 -6 -67 17 -135 15 -42 24 -84 20
-93 -7 -20 -46 -17 -57 5 -4 8 -21 45 -38 82 -57 122 -164 188 -301 188 -82 0
-144 -19 -216 -67 -45 -30 -56 -34 -69 -23 -25 21 -17 47 25 77 22 15 40 31
40 34 0 13 -108 89 -164 115 -76 35 -236 62 -271 46 l-25 -12 0 -470 c0 -409
2 -471 15 -476 29 -12 68 8 125 62 31 29 61 54 67 54 6 0 50 -20 99 -44 110
-54 223 -90 333 -106 119 -18 328 -7 471 23 63 14 145 28 181 31 127 14 209
89 209 193 0 22 10 85 22 139 30 138 31 369 0 539 -29 165 -49 330 -62 525 -6
91 -16 181 -21 201 -20 77 -63 108 -214 153 -49 15 -103 32 -119 37 -35 11
-54 11 -86 -2z m-638 -1312 c116 -117 267 -165 418 -135 81 17 103 11 98 -26
-5 -32 -67 -49 -183 -50 -151 0 -258 42 -371 146 -56 51 -76 87 -63 111 16 28
34 20 101 -46z"/>
</g>
</svg>
