<?xml version="1.0" standalone="no"?>
<!DOCTYPE svg PUBLIC "-//W3C//DTD SVG 20010904//EN"
 "http://www.w3.org/TR/2001/REC-SVG-20010904/DTD/svg10.dtd">
<svg version="1.0" xmlns="http://www.w3.org/2000/svg"
 width="214.000000pt" height="216.000000pt" viewBox="0 0 214.000000 216.000000"
 preserveAspectRatio="xMidYMid meet">

<g transform="translate(0.000000,216.000000) scale(0.100000,-0.100000)"
fill="currentColor" stroke="none">
<path d="M362 2003 c-17 -33 -101 -476 -87 -461 2 2 40 58 86 126 95 139 148
230 149 252 0 21 -94 100 -119 100 -11 0 -24 -8 -29 -17z"/>
<path d="M1583 1979 c-26 -23 -49 -48 -51 -54 -6 -23 26 -85 88 -170 34 -47
79 -115 101 -152 27 -47 39 -61 39 -45 0 66 -63 410 -81 445 -15 27 -44 20
-96 -24z"/>
<path d="M543 1813 c-108 -280 -107 -620 2 -949 19 -56 35 -120 35 -141 0
-128 -85 -197 -181 -147 -17 8 -33 13 -37 10 -9 -9 18 -259 31 -286 l12 -25
214 -3 c149 -2 218 1 227 9 25 21 86 260 70 276 -2 3 -18 -5 -34 -17 -17 -12
-51 -25 -76 -27 -87 -10 -145 36 -167 131 -15 67 -4 132 45 261 53 141 69 239
64 385 -5 124 -5 126 -57 248 -45 106 -68 180 -95 305 -10 43 -29 32 -53 -30z"/>
<path d="M1452 1858 c-6 -6 -12 -19 -12 -28 0 -40 -46 -194 -87 -288 -51 -120
-63 -175 -63 -284 0 -118 17 -206 68 -352 38 -110 46 -143 46 -206 0 -85 -15
-122 -66 -165 -28 -24 -38 -27 -88 -23 -38 3 -67 12 -89 27 -18 13 -34 21 -37
18 -8 -7 13 -121 37 -199 12 -42 27 -71 39 -78 30 -16 425 -13 439 3 23 28 55
307 35 307 -5 -1 -20 -7 -34 -15 -65 -37 -149 -1 -170 73 -16 60 -12 109 20
203 111 332 118 621 23 911 -31 94 -43 114 -61 96z"/>
<path d="M680 1776 c0 -21 83 -235 140 -361 40 -88 84 -191 100 -230 46 -118
43 -117 51 -35 3 41 7 141 8 222 l1 148 -27 29 c-38 39 -259 231 -267 231 -3
0 -6 -2 -6 -4z"/>
<path d="M1224 1670 c-71 -62 -137 -121 -146 -132 -15 -16 -18 -39 -18 -118 0
-143 12 -342 20 -333 4 4 20 42 35 83 16 41 64 154 108 250 76 168 143 347
134 356 -3 3 -62 -45 -133 -106z"/>
<path d="M388 1588 c-33 -50 -87 -166 -108 -233 -34 -107 -40 -312 -11 -425
28 -111 70 -198 121 -254 48 -52 80 -59 104 -24 24 34 19 86 -20 210 -74 233
-98 438 -75 636 7 57 10 106 8 108 -2 3 -11 -6 -19 -18z"/>
<path d="M1634 1580 c3 -19 9 -102 12 -185 8 -188 -10 -313 -72 -508 -47 -147
-53 -199 -28 -235 24 -35 56 -28 104 24 47 52 91 139 117 234 25 91 24 328 -1
420 -19 70 -93 232 -120 265 -17 19 -17 19 -12 -15z"/>
<path d="M820 1192 c0 -67 -20 -153 -68 -297 -53 -161 -60 -236 -25 -283 44
-60 139 -27 184 65 46 92 27 267 -52 472 -17 45 -33 81 -35 81 -2 0 -4 -17 -4
-38z"/>
<path d="M1196 1185 c-57 -128 -102 -334 -92 -419 17 -145 146 -239 210 -153
35 48 28 128 -27 287 -41 121 -60 202 -70 295 l-3 30 -18 -40z"/>
</g>
</svg>
