<?xml version="1.0" standalone="no"?>
<!DOCTYPE svg PUBLIC "-//W3C//DTD SVG 20010904//EN"
 "http://www.w3.org/TR/2001/REC-SVG-20010904/DTD/svg10.dtd">
<svg version="1.0" xmlns="http://www.w3.org/2000/svg"
 width="1024.000000pt" height="1024.000000pt" viewBox="0 0 1024.000000 1024.000000"
 preserveAspectRatio="xMidYMid meet">

<g transform="translate(0.000000,1024.000000) scale(0.100000,-0.100000)"
fill="currentColor" stroke="none">
<path d="M4325 8268 c-19 -17 -34 -51 -56 -128 -42 -142 -87 -226 -164 -309
-83 -87 -175 -151 -356 -245 -128 -66 -453 -204 -702 -296 -103 -39 -129 -65
-104 -104 9 -13 37 -36 64 -51 26 -15 103 -66 170 -112 384 -263 633 -536 799
-876 99 -205 151 -393 174 -632 16 -173 37 -280 69 -349 49 -109 295 -459 544
-776 131 -167 155 -190 193 -190 27 0 34 5 43 31 16 48 14 3931 -2 3979 -7 19
-27 44 -46 57 -33 23 -39 23 -317 23 -279 0 -283 0 -309 -22z"/>
<path d="M5303 8270 c-18 -10 -40 -34 -50 -52 -17 -31 -18 -126 -18 -2005 1
-1911 1 -1972 19 -1992 25 -27 61 -27 89 2 77 76 398 498 544 715 157 232 184
301 204 512 34 387 118 638 307 918 185 276 392 472 738 699 89 58 168 116
174 129 23 43 21 44 -350 190 -283 111 -514 219 -632 297 -194 126 -306 272
-353 459 -9 35 -21 76 -27 91 -21 54 -41 57 -340 57 -253 0 -275 -1 -305 -20z"/>
<path d="M2254 7075 c-244 -44 -478 -167 -677 -355 -125 -119 -204 -226 -278
-375 -91 -186 -110 -270 -116 -504 -6 -224 5 -348 48 -524 49 -200 92 -257
194 -257 129 0 410 114 735 299 69 39 139 74 156 77 39 7 83 -14 201 -99 175
-126 362 -217 541 -263 123 -32 330 -43 453 -24 147 22 231 54 293 111 81 74
100 128 100 289 -1 200 -42 372 -139 577 -153 323 -394 587 -745 818 -331 217
-522 275 -766 230z"/>
<path d="M7721 7079 c-72 -13 -207 -67 -322 -131 -487 -267 -843 -662 -988
-1093 -50 -152 -66 -245 -66 -400 0 -131 2 -144 26 -195 45 -93 108 -145 219
-178 214 -65 505 -52 740 33 117 43 220 98 371 200 77 52 154 102 171 111 42
22 78 13 173 -42 267 -153 494 -258 650 -300 136 -36 177 -32 237 24 99 92
172 637 123 918 -19 105 -62 239 -106 326 -172 342 -520 621 -882 708 -96 24
-269 33 -346 19z"/>
<path d="M7952 5143 c-22 -9 -41 -58 -96 -256 -110 -394 -141 -588 -141 -872
1 -225 15 -351 60 -543 44 -183 89 -252 173 -267 113 -19 719 96 1025 195 111
35 168 77 188 137 16 50 6 457 -15 586 -63 387 -152 599 -282 669 -27 14 -124
49 -216 77 -184 56 -363 130 -535 222 -106 56 -131 64 -161 52z"/>
<path d="M2025 5036 c-195 -91 -306 -134 -510 -195 -120 -36 -182 -74 -229
-138 -104 -141 -187 -488 -208 -861 -17 -302 -2 -356 115 -411 83 -39 362
-110 642 -165 266 -51 410 -70 466 -61 48 8 93 44 119 96 28 54 66 210 92 374
32 203 31 517 -1 700 -27 155 -98 447 -147 602 -37 120 -62 153 -113 153 -14
-1 -116 -43 -226 -94z"/>
<path d="M2654 4946 c-17 -13 -18 -19 -6 -87 24 -141 114 -506 153 -622 22
-66 85 -225 140 -355 199 -469 256 -633 318 -912 50 -223 62 -331 74 -652 12
-306 12 -306 37 -333 52 -57 30 -55 807 -54 529 0 727 3 753 12 20 7 44 27 58
47 l23 35 -4 670 c-3 591 -6 679 -21 744 -48 204 -137 409 -251 576 -102 149
-462 628 -542 720 -38 44 -87 90 -109 102 -86 48 -218 49 -434 3 -55 -12 -156
-23 -241 -27 -227 -9 -377 16 -598 101 -116 44 -134 48 -157 32z"/>
<path d="M7489 4929 c-293 -106 -396 -124 -634 -116 -121 4 -189 12 -280 32
-163 37 -308 39 -380 7 -27 -13 -65 -37 -84 -55 -71 -68 -477 -600 -602 -789
-110 -168 -182 -326 -231 -508 l-31 -115 -9 -410 c-5 -225 -7 -530 -5 -676 6
-304 9 -317 80 -350 40 -18 76 -19 760 -19 777 0 755 -1 807 54 l25 28 6 276
c5 204 12 313 28 413 60 395 122 599 343 1121 149 355 174 422 213 574 46 177
115 488 115 519 0 44 -28 47 -121 14z"/>
</g>
</svg>
