<?xml version="1.0" standalone="no"?>
<!DOCTYPE svg PUBLIC "-//W3C//DTD SVG 20010904//EN"
 "http://www.w3.org/TR/2001/REC-SVG-20010904/DTD/svg10.dtd">
<svg version="1.0" xmlns="http://www.w3.org/2000/svg"
 width="201.000000pt" height="232.000000pt" viewBox="0 0 201.000000 232.000000"
 preserveAspectRatio="xMidYMid meet">

<g transform="translate(0.000000,232.000000) scale(0.100000,-0.100000)"
fill="currentColor" stroke="none">
<path d="M743 1966 c-195 -45 -362 -218 -392 -407 -19 -115 9 -202 85 -268 81
-72 180 -97 337 -88 97 6 103 7 122 34 11 15 41 50 67 78 40 42 50 48 65 39
32 -20 26 -43 -24 -97 -86 -94 -127 -209 -126 -352 1 -131 41 -254 106 -323
49 -52 106 -38 170 40 82 101 119 227 116 394 -3 118 1 134 31 134 32 0 42
-36 42 -149 -1 -233 -105 -450 -246 -511 -26 -11 -46 -21 -46 -22 0 -2 7 -24
14 -50 8 -25 18 -84 22 -130 13 -155 35 -171 230 -166 175 4 175 4 208 178 14
69 36 170 50 225 41 161 74 342 86 465 6 63 18 157 27 208 34 200 -5 311 -161
459 -171 162 -325 257 -482 298 -86 22 -228 27 -301 11z"/>
</g>
</svg>
