<?xml version="1.0" standalone="no"?>
<!DOCTYPE svg PUBLIC "-//W3C//DTD SVG 20010904//EN"
 "http://www.w3.org/TR/2001/REC-SVG-20010904/DTD/svg10.dtd">
<svg version="1.0" xmlns="http://www.w3.org/2000/svg"
 width="1254.000000pt" height="1254.000000pt" viewBox="0 0 1254.000000 1254.000000"
 preserveAspectRatio="xMidYMid meet">

<g transform="translate(0.000000,1254.000000) scale(0.100000,-0.100000)"
fill="currentColor" stroke="none">
<path d="M3745 10841 c-64 -16 -126 -63 -154 -118 -19 -36 -314 -1215 -319
-1271 -7 -99 30 -122 161 -98 282 51 611 11 1061 -129 351 -109 680 -259 1193
-543 293 -163 366 -196 481 -218 159 -32 306 1 512 114 69 38 202 111 295 162
498 274 949 461 1335 553 358 86 592 104 812 61 69 -14 80 -14 107 1 20 10 34
27 41 53 11 34 -2 92 -144 664 -85 346 -162 640 -170 655 -17 33 -61 75 -96
93 -50 26 -97 28 -284 15 -774 -58 -1169 -70 -2281 -70 -1141 0 -1563 14
-2460 79 -33 3 -73 1 -90 -3z"/>
<path d="M3555 9061 c-82 -14 -136 -31 -212 -68 -196 -95 -334 -273 -548 -708
-432 -877 -514 -1504 -335 -2544 94 -543 340 -1694 670 -3141 67 -294 131
-554 142 -577 32 -69 93 -129 166 -165 l67 -33 854 -3 c941 -3 908 -5 1005 59
57 38 109 106 131 169 20 60 47 221 154 920 108 702 209 1403 250 1745 17 138
33 269 37 293 l5 43 -87 -66 c-219 -165 -469 -284 -734 -348 -453 -111 -948
-77 -1365 93 -54 22 -107 48 -118 58 -71 64 -64 186 15 245 40 30 115 34 164
9 22 -11 85 -36 141 -55 386 -135 816 -139 1211 -11 433 140 725 430 860 854
78 247 82 304 82 1245 0 764 -1 825 -18 886 -36 131 -96 200 -237 277 -49 27
-180 99 -290 161 -560 313 -965 487 -1383 591 -248 62 -505 91 -627 71z"/>
<path d="M8780 9063 c-298 -30 -724 -150 -1061 -296 -286 -125 -1104 -559
-1166 -619 -41 -39 -88 -129 -108 -203 -23 -88 -23 -1656 0 -1814 28 -187 73
-327 162 -501 67 -132 133 -221 242 -330 342 -341 960 -494 1526 -379 112 23
290 78 368 114 129 61 247 -2 247 -131 0 -97 -59 -140 -306 -223 -308 -102
-679 -134 -1022 -86 -347 49 -678 184 -942 385 -45 34 -84 59 -87 56 -20 -20
187 -1682 332 -2676 43 -290 42 -283 73 -349 31 -62 93 -120 171 -158 l56 -28
875 0 875 0 56 26 c72 34 128 85 162 147 26 47 100 347 232 932 24 107 53 236
65 285 122 519 344 1518 431 1940 160 773 202 1086 203 1490 0 392 -41 645
-171 1040 -133 405 -349 851 -529 1093 -160 213 -402 314 -684 285z"/>
</g>
</svg>
