<?xml version="1.0" standalone="no"?>
<!DOCTYPE svg PUBLIC "-//W3C//DTD SVG 20010904//EN"
 "http://www.w3.org/TR/2001/REC-SVG-20010904/DTD/svg10.dtd">
<svg version="1.0" xmlns="http://www.w3.org/2000/svg"
 width="210.000000pt" height="224.000000pt" viewBox="0 0 210.000000 224.000000"
 preserveAspectRatio="xMidYMid meet">

<g transform="translate(0.000000,224.000000) scale(0.100000,-0.100000)"
fill="currentColor" stroke="none">
<path d="M213 1995 c-23 -16 -23 -20 -23 -226 0 -174 2 -209 14 -209 8 0 47
16 87 35 93 44 182 63 344 74 136 8 175 20 225 67 14 13 49 36 79 52 l54 30
-85 39 c-47 22 -122 64 -169 94 l-84 54 -210 3 c-179 2 -213 0 -232 -13z"/>
<path d="M1020 1749 c-31 -11 -78 -38 -105 -60 -84 -69 -116 -81 -250 -90
-210 -14 -301 -36 -399 -93 -82 -48 -76 -18 -76 -399 0 -188 4 -347 8 -354 12
-19 51 -30 152 -43 154 -20 288 -1 417 61 124 59 210 146 293 296 l23 42 -44
48 c-125 134 -194 292 -132 301 18 3 29 -11 69 -90 36 -69 69 -114 127 -175
70 -73 93 -89 210 -149 102 -53 145 -82 195 -131 36 -35 70 -63 77 -63 17 0
32 39 56 143 63 279 20 477 -135 633 -105 104 -202 145 -345 143 -57 0 -104
-7 -141 -20z"/>
<path d="M1127 1033 c-91 -175 -63 -532 60 -778 46 -91 22 -85 318 -85 228 0
264 2 276 16 9 11 13 52 12 147 -1 193 -36 418 -83 541 l-10 29 -28 -54 c-30
-61 -65 -85 -105 -75 -14 3 -57 37 -95 75 -55 56 -89 79 -183 126 -62 31 -122
64 -131 72 -15 13 -18 12 -31 -14z"/>
<path d="M940 798 c-63 -57 -185 -120 -280 -145 -79 -21 -317 -24 -398 -5 -30
7 -58 10 -63 6 -13 -7 -12 -440 1 -465 10 -18 25 -19 334 -19 l324 0 10 28 c6
15 15 49 21 75 7 27 39 102 71 167 33 66 57 126 54 134 -3 9 -9 73 -12 144
l-7 130 -55 -50z"/>
</g>
</svg>
