<?xml version="1.0" standalone="no"?>
<!DOCTYPE svg PUBLIC "-//W3C//DTD SVG 20010904//EN"
 "http://www.w3.org/TR/2001/REC-SVG-20010904/DTD/svg10.dtd">
<svg version="1.0" xmlns="http://www.w3.org/2000/svg"
 width="242.000000pt" height="206.000000pt" viewBox="0 0 242.000000 206.000000"
 preserveAspectRatio="xMidYMid meet">

<g transform="translate(0.000000,206.000000) scale(0.100000,-0.100000)"
fill="currentColor" stroke="none">
<path d="M928 1863 c-54 -69 -98 -100 -204 -140 -60 -23 -143 -50 -184 -59
-41 -9 -92 -25 -113 -36 -56 -28 -115 -92 -145 -157 -24 -51 -26 -66 -25 -173
2 -103 -1 -125 -22 -183 -14 -37 -28 -99 -31 -138 -6 -62 -4 -74 12 -89 25
-22 262 -69 287 -56 26 13 47 72 67 188 l18 105 -23 35 c-52 76 -71 162 -40
174 26 10 42 -4 55 -47 15 -52 55 -108 95 -135 50 -35 108 -42 199 -26 197 34
246 78 246 218 0 71 16 102 47 92 25 -8 33 -33 33 -109 0 -72 21 -120 65 -147
45 -28 178 -61 250 -62 103 -2 186 58 219 160 19 55 41 71 65 47 13 -13 13
-22 3 -62 -7 -27 -26 -67 -42 -91 l-30 -43 15 -91 c18 -110 40 -180 63 -201
16 -15 29 -14 147 9 164 32 169 37 160 128 -3 38 -18 100 -31 138 -21 58 -26
89 -27 196 -2 113 -5 132 -27 176 -38 74 -118 141 -197 166 -36 11 -74 20 -86
20 -11 0 -78 23 -149 52 -126 50 -161 73 -201 131 l-18 27 -219 0 c-192 0
-221 -2 -232 -17z m37 -224 c73 -14 130 -49 130 -79 0 -34 -25 -37 -87 -10
-28 12 -90 26 -140 31 -100 10 -108 13 -108 38 0 44 57 49 205 20z m585 6 c6
-8 10 -22 8 -32 -2 -14 -17 -20 -73 -26 -39 -4 -101 -17 -140 -28 -101 -30
-120 -30 -120 1 0 47 130 93 281 99 17 0 37 -6 44 -14z"/>
<path d="M1126 1151 c-74 -77 -331 -128 -433 -86 -20 8 -37 14 -39 12 -8 -8
-23 -134 -18 -156 3 -14 19 -68 35 -119 35 -112 38 -195 9 -313 -28 -119 -35
-196 -20 -214 19 -22 981 -23 1000 0 14 17 8 80 -23 210 -30 128 -27 208 13
330 29 89 32 109 27 178 -3 43 -7 80 -10 83 -2 2 -23 -3 -47 -11 -115 -41
-363 11 -432 90 -12 14 -24 25 -28 25 -3 0 -19 -13 -34 -29z m64 -187 c6 -14
7 -36 4 -48 -3 -13 1 -39 9 -59 21 -49 71 -65 157 -48 68 13 80 10 80 -23 0
-41 -98 -66 -184 -46 -27 6 -52 7 -56 3 -4 -4 -4 -40 -1 -80 8 -90 23 -105 96
-100 28 3 57 7 66 11 18 8 52 -20 46 -38 -11 -35 -124 -58 -181 -36 l-26 10 0
-60 c0 -71 -13 -110 -38 -110 -33 0 -42 21 -42 96 l0 73 -31 -11 c-66 -23
-179 8 -179 48 0 19 32 33 55 23 41 -16 108 -10 132 13 20 19 23 31 23 99 l0
77 -42 -15 c-66 -23 -188 -3 -202 32 -2 7 1 21 8 30 11 16 18 16 65 5 65 -15
116 -8 147 21 20 19 24 33 24 79 0 31 5 61 12 68 20 20 48 14 58 -14z"/>
</g>
</svg>
